<?xml version="1.0" encoding="UTF-8"?>
<svg version="1.1" xmlns="http://www.w3.org/2000/svg" width="435" height="427">
<path d="M0 0 C143.55 0 287.1 0 435 0 C435 140.91 435 281.82 435 427 C291.45 427 147.9 427 0 427 C0 286.09 0 145.18 0 0 Z " fill="none" transform="translate(0,0)"/>
<path d="M0 0 C0.66 0 1.32 0 2 0 C2.4125 0.99 2.825 1.98 3.25 3 C4.35402208 5.57733377 5.52595726 8.09476949 6.796875 10.59375 C9.72952115 16.42127134 12.49754813 22.32663952 15.2890625 28.22265625 C15.70929688 29.10824219 16.12953125 29.99382812 16.5625 30.90625 C16.96855469 31.76992187 17.37460938 32.63359375 17.79296875 33.5234375 C18.56709739 35.11177911 19.37948561 36.68235582 20.23828125 38.2265625 C20.61339844 38.90460938 20.98851562 39.58265625 21.375 40.28125 C21.88160156 41.1484668 21.88160156 41.1484668 22.3984375 42.03320312 C23.58913175 45.9261548 22.43776583 49.16573096 20.60131836 52.66552734 C19.72938843 53.98738037 19.72938843 53.98738037 18.83984375 55.3359375 C18.21142578 56.31820312 17.58300781 57.30046875 16.93554688 58.3125 C15.60591819 60.35048414 14.26999058 62.38437285 12.92773438 64.4140625 C9.20285508 70.26361601 7.07501984 74.01681644 8 81 C12.3845105 79.66028846 14.6161966 77.94244409 17 74 C16.90128638 71.50417589 16.90128638 71.50417589 16 69 C14.71032746 63.73383711 14.71032746 63.73383711 15.9375 60.625 C19.27570341 57.99490035 21.82933437 58.53659271 26 59 C28.58772586 62.8815888 27.87719799 64.53426477 27 69 C26.67 69.99 26.34 70.98 26 72 C28.14405361 75.95662525 30.95619764 79.96037799 35.02734375 82.03125 C37.1071234 82.65392236 37.1071234 82.65392236 40 83 C40.33 80.69 40.66 78.38 41 76 C40.0925 76.0825 39.185 76.165 38.25 76.25 C35 76 35 76 32.6875 74.4375 C30.43168734 71.17910394 30 68.95524221 30 65 C31.4375 62.0625 31.4375 62.0625 34 60 C36.82547522 59.28929764 39.17537508 59.28226744 42 60 C45.10400106 62.6384009 45.89950833 64.14582078 46.375 68.1875 C46 71 46 71 44 73 C44.00922702 75.54713404 44.00922702 75.54713404 45 78 C46.96758273 79.36020151 46.96758273 79.36020151 49 80 C50.64599285 77.03721286 51.65262237 74.38693192 52 71 C51.34 70.01 50.68 69.02 50 68 C49.45447088 61.89007383 49.45447088 61.89007383 51.1875 59.0625 C53.70554428 57.58640508 55.12476676 57.50910652 58 58 C60.3125 59.625 60.3125 59.625 62 62 C62.4375 65.0625 62.4375 65.0625 62 68 C61.484375 68.495 60.96875 68.99 60.4375 69.5 C59.963125 69.995 59.48875 70.49 59 71 C59.24471481 73.99775644 59.65338914 76.30677828 61 79 C64.5610073 77.51491624 66.60021023 75.51458829 69.125 72.625 C70.14980469 71.46871094 70.14980469 71.46871094 71.1953125 70.2890625 C73.71994537 67.08682254 75 65.11470339 75 61 C72.69 59.68 70.38 58.36 68 57 C69.98888251 51.03335247 77.63436073 48.66450812 83.01171875 45.97265625 C85.09905818 44.93439789 87.18930481 43.90426129 89.28930664 42.8918457 C92.46132469 41.3475686 95.45127254 39.76175947 98.359375 37.7578125 C101 36 101 36 103 36 C101.57160475 39.13964105 99.81411118 41.59247638 97.625 44.25 C91.39847475 52.21114974 89.27229514 58.95556467 88 69 C86.35 69 84.7 69 83 69 C82.34 67.02 81.68 65.04 81 63 C80.608125 63.969375 80.21625 64.93875 79.8125 65.9375 C78 69 78 69 75.3125 69.875 C74.549375 69.91625 73.78625 69.9575 73 70 C73 70.66 73 71.32 73 72 C74.65 72 76.3 72 78 72 C78.99 73.98 79.98 75.96 81 78 C81.66 76.35 82.32 74.7 83 73 C84.32 73 85.64 73 87 73 C86.73639292 75.68879226 86.4013804 78.32942945 86 81 C85.83886719 82.0725 85.67773438 83.145 85.51171875 84.25 C83.66156242 94.23857403 83.66156242 94.23857403 79.5 97.25 C76 99 76 99 73 100 C73.16242188 101.07378906 73.32484375 102.14757812 73.4921875 103.25390625 C74.18534193 108.81016356 74.14608723 114.34586968 74.125 119.9375 C74.12886719 120.99001953 74.13273438 122.04253906 74.13671875 123.12695312 C74.13478516 124.62452148 74.13478516 124.62452148 74.1328125 126.15234375 C74.13168457 127.05976318 74.13055664 127.96718262 74.12939453 128.90209961 C74 131 74 131 73 132 C71.14652114 132.09868291 69.28923991 132.12632164 67.43313599 132.12698364 C66.22445862 132.12980347 65.01578125 132.13262329 63.77047729 132.13552856 C62.41876206 132.13358395 61.06704697 132.13153576 59.71533203 132.12939453 C58.30135045 132.13074856 56.88736923 132.13252851 55.47338867 132.13470459 C51.62212087 132.13927951 47.77087974 132.13748891 43.91961145 132.1343255 C39.89577822 132.13180122 35.87194733 132.13413973 31.84811401 132.13571167 C25.08737781 132.13753358 18.32665252 132.13512693 11.56591797 132.13037109 C3.74464325 132.12493282 -4.0766054 132.12668788 -11.89787948 132.1321975 C-18.60447503 132.13673325 -25.31106272 132.13737677 -32.01765931 132.13475883 C-36.02683129 132.13319804 -40.035991 132.1329968 -44.0451622 132.13629532 C-47.81584139 132.13918058 -51.58648693 132.13718623 -55.35716248 132.13140106 C-56.74270192 132.1300768 -58.12824418 132.13046194 -59.5137825 132.13266373 C-61.40224355 132.13538836 -63.29071078 132.13136892 -65.1791687 132.12698364 C-66.23701002 132.12660662 -67.29485134 132.12622959 -68.38474846 132.12584114 C-71 132 -71 132 -74 131 C-74.05898369 127.54174064 -74.09392131 124.0836138 -74.125 120.625 C-74.14175781 119.65949219 -74.15851563 118.69398438 -74.17578125 117.69921875 C-74.21924836 111.22261957 -73.53232671 105.293423 -72 99 C-73.60875 98.62875 -73.60875 98.62875 -75.25 98.25 C-79.15775937 96.94741354 -80.42779556 96.09417898 -83 93 C-87.54967863 81.73499572 -88.43712459 67.02092613 -88 55 C-88.66 55 -89.32 55 -90 55 C-90.7425 53.2984375 -90.7425 53.2984375 -91.5 51.5625 C-93.75525854 46.97844189 -96.88232321 43.55756656 -100.390625 39.8828125 C-102 38 -102 38 -102 36 C-99.01959235 37.45053898 -96.15675759 39.03992448 -93.296875 40.71484375 C-92.39839844 41.23626953 -91.49992188 41.75769531 -90.57421875 42.29492188 C-88.70477546 43.38219837 -86.83754729 44.47329326 -84.97265625 45.56835938 C-80.84286509 47.95727566 -76.93090713 50.13134219 -72.390625 51.62890625 C-71.27171875 52.08136719 -70.1528125 52.53382813 -69 53 C-68.28808594 55.08569336 -68.28808594 55.08569336 -68 57 C-71.625 60 -71.625 60 -75 60 C-73.69786088 64.52075992 -71.95665047 67.89116943 -69.1875 71.6875 C-68.52105469 72.61949219 -67.85460937 73.55148438 -67.16796875 74.51171875 C-64.96255154 77.04298139 -62.95873743 78.4560864 -60 80 C-59.03713148 77.01380642 -58.23798755 74.1361471 -58 71 C-59.85164036 68.24743206 -59.85164036 68.24743206 -62 66 C-61.93148663 63.12243866 -61.3436338 61.572723 -59.875 59.125 C-56.81663109 57.28997865 -54.34391796 58.20961939 -51 59 C-49 61 -49 61 -48.6875 64.4375 C-49 68 -49 68 -50.5 69.9375 C-50.995 70.288125 -51.49 70.63875 -52 71 C-50.87548273 73.9719385 -49.77706209 76.33440687 -48 79 C-46.02 78.505 -46.02 78.505 -44 78 C-43.22757731 76.16299211 -43.22757731 76.16299211 -43 74 C-43.474375 73.54625 -43.94875 73.0925 -44.4375 72.625 C-46 71 -46 71 -46.4375 68.125 C-45.88080427 64.14860191 -45.0656059 62.60576502 -42 60 C-39.1770404 59.28269059 -36.8229596 59.28269059 -34 60 C-31.00902696 62.54232708 -30.15797443 64.1574697 -29.4375 68 C-30.20135228 72.07387885 -31.72751064 73.52745249 -35 76 C-37.8125 76.3125 -37.8125 76.3125 -40 76 C-40 78.31 -40 80.62 -40 83 C-38.02 83 -36.04 83 -34 83 C-34 82.34 -34 81.68 -34 81 C-32.52295788 79.74772516 -31.04172601 78.49833478 -29.5078125 77.31640625 C-27.73237056 75.88235909 -27.73237056 75.88235909 -26 73 C-26.27034634 70.56282742 -26.27034634 70.56282742 -27 68 C-27.6875 65.375 -27.6875 65.375 -28 63 C-26 60 -26 60 -24.16015625 59.41796875 C-23.46792969 59.34191406 -22.77570313 59.26585937 -22.0625 59.1875 C-21.37285156 59.09855469 -20.68320313 59.00960937 -19.97265625 58.91796875 C-18 59 -18 59 -15 61 C-14.56867485 65.05445642 -14.69980639 66.54970958 -17 70 C-17.66 70 -18.32 70 -19 70 C-18.04367001 71.29315061 -17.08486149 72.58446853 -16.125 73.875 C-15.59132813 74.59429687 -15.05765625 75.31359375 -14.5078125 76.0546875 C-13.00126838 78.08252632 -13.00126838 78.08252632 -11 80 C-9.68 80 -8.36 80 -7 80 C-6.58376822 74.25308052 -7.60550627 71.09711957 -10.5625 66.1875 C-10.91948975 65.58220459 -11.27647949 64.97690918 -11.64428711 64.35327148 C-14.38750234 59.77478529 -17.46777344 55.51316116 -20.84765625 51.37890625 C-22.54975662 47.86507871 -21.93266197 45.75435964 -21 42 C-19.89410332 39.26071505 -18.57285804 36.66978908 -17.1875 34.0625 C-16.84396484 33.39798828 -16.50042969 32.73347656 -16.14648438 32.04882812 C-15.4527518 30.70691765 -14.75597328 29.36657744 -14.05615234 28.02783203 C-10.80091986 21.82709077 -10.80091986 21.82709077 -7.9765625 15.42578125 C-6.68069546 12.20684753 -5.0360054 9.23267658 -3.375 6.1875 C-2.88773438 5.2912793 -2.88773438 5.2912793 -2.390625 4.37695312 C-1.59620849 2.91662865 -0.79844624 1.45812509 0 0 Z " fill="#F2D36B" transform="translate(228,139)"/>
<path d="M0 0 C0.66 0 1.32 0 2 0 C2.4125 0.99 2.825 1.98 3.25 3 C4.35402208 5.57733377 5.52595726 8.09476949 6.796875 10.59375 C9.72952115 16.42127134 12.49754813 22.32663952 15.2890625 28.22265625 C15.70929688 29.10824219 16.12953125 29.99382812 16.5625 30.90625 C16.96855469 31.76992187 17.37460938 32.63359375 17.79296875 33.5234375 C18.56709739 35.11177911 19.37948561 36.68235582 20.23828125 38.2265625 C20.61339844 38.90460938 20.98851562 39.58265625 21.375 40.28125 C21.88160156 41.1484668 21.88160156 41.1484668 22.3984375 42.03320312 C23.58913175 45.9261548 22.43776583 49.16573096 20.60131836 52.66552734 C19.72938843 53.98738037 19.72938843 53.98738037 18.83984375 55.3359375 C18.21142578 56.31820312 17.58300781 57.30046875 16.93554688 58.3125 C15.60591819 60.35048414 14.26999058 62.38437285 12.92773438 64.4140625 C9.20285508 70.26361601 7.07501984 74.01681644 8 81 C12.3845105 79.66028846 14.6161966 77.94244409 17 74 C16.90128638 71.50417589 16.90128638 71.50417589 16 69 C14.71032746 63.73383711 14.71032746 63.73383711 15.9375 60.625 C19.27570341 57.99490035 21.82933437 58.53659271 26 59 C28.58772586 62.8815888 27.87719799 64.53426477 27 69 C26.67 69.99 26.34 70.98 26 72 C28.14405361 75.95662525 30.95619764 79.96037799 35.02734375 82.03125 C37.1071234 82.65392236 37.1071234 82.65392236 40 83 C40.33 80.69 40.66 78.38 41 76 C40.0925 76.0825 39.185 76.165 38.25 76.25 C35 76 35 76 32.6875 74.4375 C30.43168734 71.17910394 30 68.95524221 30 65 C31.4375 62.0625 31.4375 62.0625 34 60 C36.82547522 59.28929764 39.17537508 59.28226744 42 60 C45.10400106 62.6384009 45.89950833 64.14582078 46.375 68.1875 C46 71 46 71 44 73 C44.00922702 75.54713404 44.00922702 75.54713404 45 78 C46.96758273 79.36020151 46.96758273 79.36020151 49 80 C50.64599285 77.03721286 51.65262237 74.38693192 52 71 C51.34 70.01 50.68 69.02 50 68 C49.45447088 61.89007383 49.45447088 61.89007383 51.1875 59.0625 C53.70554428 57.58640508 55.12476676 57.50910652 58 58 C60.3125 59.625 60.3125 59.625 62 62 C62.4375 65.0625 62.4375 65.0625 62 68 C61.484375 68.495 60.96875 68.99 60.4375 69.5 C59.963125 69.995 59.48875 70.49 59 71 C59.25618601 73.9461391 59.90919715 76.63678862 60.625 79.5 C61.07970641 82.53137604 60.62447426 85.01640075 60 88 C61.32 88.33 62.64 88.66 64 89 C64 89.99 64 90.98 64 92 C62.56206608 91.68950274 61.1246682 91.3765224 59.6875 91.0625 C58.88699219 90.88847656 58.08648437 90.71445313 57.26171875 90.53515625 C55 90 55 90 52 89 C52 88.34 52 87.68 52 87 C51.01 86.67 50.02 86.34 49 86 C49 85.01 49 84.02 49 83 C47.70450101 84.09966775 46.41373929 85.20491801 45.125 86.3125 C44.40570313 86.92738281 43.68640625 87.54226562 42.9453125 88.17578125 C40.80820669 90.0412324 40.80820669 90.0412324 39 93 C29.2363792 95.33477889 18.30628083 95.08729067 9.5625 90 C8.716875 89.34 7.87125 88.68 7 88 C7 87.34 7 86.68 7 86 C6.34 86 5.68 86 5 86 C4.34 84.02 3.68 82.04 3 80 C1.35 80 -0.3 80 -2 80 C-2.226875 80.86625 -2.45375 81.7325 -2.6875 82.625 C-4.18934165 86.48687854 -5.63180665 89.54068422 -9 92 C-16.3046883 94.58682048 -25.36298927 94.97426886 -33 94 C-35.37890625 92.48046875 -35.37890625 92.48046875 -37 91 C-39.67018985 94.84348686 -39.67018985 94.84348686 -41.9140625 98.9375 C-43.18131659 101.34437109 -44.7111821 103.20347105 -46.5 105.25 C-47.41265625 106.30960938 -47.41265625 106.30960938 -48.34375 107.390625 C-50 109 -50 109 -52 109 C-52 109.99 -52 110.98 -52 112 C-53.32 112 -54.64 112 -56 112 C-56.33 110.02 -56.66 108.04 -57 106 C-57.66 106 -58.32 106 -59 106 C-59.33 107.65 -59.66 109.3 -60 111 C-62.475 111.495 -62.475 111.495 -65 112 C-68 108.25 -68 108.25 -68 106 C-68.66 106 -69.32 106 -70 106 C-70 105.34 -70 104.68 -70 104 C-69.34 104 -68.68 104 -68 104 C-68 103.01 -68 102.02 -68 101 C-68.99 101.33 -69.98 101.66 -71 102 C-71.33 101.01 -71.66 100.02 -72 99 C-73.6396875 98.5359375 -73.6396875 98.5359375 -75.3125 98.0625 C-79.28064106 96.91913732 -80.42423489 96.10812575 -83 93 C-87.54967863 81.73499572 -88.43712459 67.02092613 -88 55 C-88.66 55 -89.32 55 -90 55 C-90.7425 53.2984375 -90.7425 53.2984375 -91.5 51.5625 C-93.75525854 46.97844189 -96.88232321 43.55756656 -100.390625 39.8828125 C-102 38 -102 38 -102 36 C-99.01959235 37.45053898 -96.15675759 39.03992448 -93.296875 40.71484375 C-92.39839844 41.23626953 -91.49992188 41.75769531 -90.57421875 42.29492188 C-88.70477546 43.38219837 -86.83754729 44.47329326 -84.97265625 45.56835938 C-80.84286509 47.95727566 -76.93090713 50.13134219 -72.390625 51.62890625 C-71.27171875 52.08136719 -70.1528125 52.53382813 -69 53 C-68.28808594 55.08569336 -68.28808594 55.08569336 -68 57 C-71.625 60 -71.625 60 -75 60 C-73.69786088 64.52075992 -71.95665047 67.89116943 -69.1875 71.6875 C-68.52105469 72.61949219 -67.85460937 73.55148438 -67.16796875 74.51171875 C-64.96255154 77.04298139 -62.95873743 78.4560864 -60 80 C-59.03713148 77.01380642 -58.23798755 74.1361471 -58 71 C-59.85164036 68.24743206 -59.85164036 68.24743206 -62 66 C-61.93148663 63.12243866 -61.3436338 61.572723 -59.875 59.125 C-56.81663109 57.28997865 -54.34391796 58.20961939 -51 59 C-49 61 -49 61 -48.6875 64.4375 C-49 68 -49 68 -50.5 69.9375 C-50.995 70.288125 -51.49 70.63875 -52 71 C-50.87548273 73.9719385 -49.77706209 76.33440687 -48 79 C-46.02 78.505 -46.02 78.505 -44 78 C-43.22757731 76.16299211 -43.22757731 76.16299211 -43 74 C-43.474375 73.54625 -43.94875 73.0925 -44.4375 72.625 C-46 71 -46 71 -46.4375 68.125 C-45.88080427 64.14860191 -45.0656059 62.60576502 -42 60 C-39.1770404 59.28269059 -36.8229596 59.28269059 -34 60 C-31.00902696 62.54232708 -30.15797443 64.1574697 -29.4375 68 C-30.20135228 72.07387885 -31.72751064 73.52745249 -35 76 C-37.8125 76.3125 -37.8125 76.3125 -40 76 C-40 78.31 -40 80.62 -40 83 C-38.02 83 -36.04 83 -34 83 C-34 82.34 -34 81.68 -34 81 C-32.52295788 79.74772516 -31.04172601 78.49833478 -29.5078125 77.31640625 C-27.73237056 75.88235909 -27.73237056 75.88235909 -26 73 C-26.27034634 70.56282742 -26.27034634 70.56282742 -27 68 C-27.6875 65.375 -27.6875 65.375 -28 63 C-26 60 -26 60 -24.16015625 59.41796875 C-23.46792969 59.34191406 -22.77570313 59.26585937 -22.0625 59.1875 C-21.37285156 59.09855469 -20.68320313 59.00960937 -19.97265625 58.91796875 C-18 59 -18 59 -15 61 C-14.56867485 65.05445642 -14.69980639 66.54970958 -17 70 C-17.66 70 -18.32 70 -19 70 C-18.04367001 71.29315061 -17.08486149 72.58446853 -16.125 73.875 C-15.59132813 74.59429687 -15.05765625 75.31359375 -14.5078125 76.0546875 C-13.00126838 78.08252632 -13.00126838 78.08252632 -11 80 C-9.68 80 -8.36 80 -7 80 C-6.58376822 74.25308052 -7.60550627 71.09711957 -10.5625 66.1875 C-10.91948975 65.58220459 -11.27647949 64.97690918 -11.64428711 64.35327148 C-14.38750234 59.77478529 -17.46777344 55.51316116 -20.84765625 51.37890625 C-22.54975662 47.86507871 -21.93266197 45.75435964 -21 42 C-19.89410332 39.26071505 -18.57285804 36.66978908 -17.1875 34.0625 C-16.84396484 33.39798828 -16.50042969 32.73347656 -16.14648438 32.04882812 C-15.4527518 30.70691765 -14.75597328 29.36657744 -14.05615234 28.02783203 C-10.80091986 21.82709077 -10.80091986 21.82709077 -7.9765625 15.42578125 C-6.68069546 12.20684753 -5.0360054 9.23267658 -3.375 6.1875 C-2.88773438 5.2912793 -2.88773438 5.2912793 -2.390625 4.37695312 C-1.59620849 2.91662865 -0.79844624 1.45812509 0 0 Z " fill="#ECBB50" transform="translate(228,139)"/>
<path d="M0 0 C1.65 0 3.3 0 5 0 C5.99 2.97 5.99 2.97 7 6 C7.66 6 8.32 6 9 6 C10.02297922 6.97648017 11.01904252 7.98131338 12 9 C17.98723197 14.36786315 26.40773462 13.34742533 34 13 C35.67369545 12.70397223 37.34400719 12.38285338 39 12 C36.60299001 15.76672999 34.1444702 18.8555298 31 22 C29.76487921 24.13309192 29.76487921 24.13309192 29 26 C28.01 24.515 28.01 24.515 27 23 C23.91634129 22.7497843 23.91634129 22.7497843 21 23 C21.99 26.465 21.99 26.465 23 30 C21.68 31.32 20.36 32.64 19 34 C19.33 34.99 19.66 35.98 20 37 C25.61 37.33 31.22 37.66 37 38 C37 38.33 37 38.66 37 39 C6.97 39.33 -23.06 39.66 -54 40 C-54.33 40.66 -54.66 41.32 -55 42 C-55.66 42 -56.32 42 -57 42 C-57 41.01 -57 40.02 -57 39 C-61.62 39 -66.24 39 -71 39 C-71 42.96 -71 46.92 -71 51 C-71.33 51 -71.66 51 -72 51 C-72.05855176 47.47923768 -72.0937806 43.9586024 -72.125 40.4375 C-72.14175781 39.44685547 -72.15851563 38.45621094 -72.17578125 37.43554688 C-72.21274359 31.87271509 -71.87082551 27.25156925 -70 22 C-68.68 21.67 -67.36 21.34 -66 21 C-66 21.99 -66 22.98 -66 24 C-66.66 24 -67.32 24 -68 24 C-68 24.66 -68 25.32 -68 26 C-67.34 26 -66.68 26 -66 26 C-65.54625 26.825 -65.0925 27.65 -64.625 28.5 C-64.08875 29.325 -63.5525 30.15 -63 31 C-61.68 31 -60.36 31 -59 31 C-58.34 29.35 -57.68 27.7 -57 26 C-56.34 26 -55.68 26 -55 26 C-54.67 27.98 -54.34 29.96 -54 32 C-52.68 32 -51.36 32 -50 32 C-50 31.01 -50 30.02 -50 29 C-47.54163581 26.33091888 -44.90415661 23.91069138 -42.25 21.4375 C-39.95682648 18.95322869 -39.68406326 18.12714633 -39 15 C-37.71937515 13.2925002 -36.3927289 11.61736259 -35 10 C-34.46503906 10.48984375 -33.93007812 10.9796875 -33.37890625 11.484375 C-28.82663996 14.38466945 -23.22163754 13.23468034 -18 13 C-16.40285156 12.95359375 -16.40285156 12.95359375 -14.7734375 12.90625 C-13.79632813 12.8546875 -12.81921875 12.803125 -11.8125 12.75 C-10.93207031 12.70359375 -10.05164063 12.6571875 -9.14453125 12.609375 C-6.82642886 12.21151003 -6.82642886 12.21151003 -5.79296875 10.04296875 C-5.53128906 9.36878906 -5.26960938 8.69460937 -5 8 C-4.505 7.525625 -4.01 7.05125 -3.5 6.5625 C-1.60096688 4.5843405 -0.90100969 2.56441218 0 0 Z " fill="#F2D26B" transform="translate(226,219)"/>
<path d="M0 0 C2.98040765 1.45053898 5.84324241 3.03992448 8.703125 4.71484375 C9.60160156 5.23626953 10.50007812 5.75769531 11.42578125 6.29492188 C13.29522454 7.38219837 15.16245271 8.47329326 17.02734375 9.56835938 C21.15713491 11.95727566 25.06909287 14.13134219 29.609375 15.62890625 C30.72828125 16.08136719 31.8471875 16.53382813 33 17 C33.71191406 19.08569336 33.71191406 19.08569336 34 21 C30.375 24 30.375 24 27 24 C28.30213912 28.52075992 30.04334953 31.89116943 32.8125 35.6875 C33.47894531 36.61949219 34.14539063 37.55148438 34.83203125 38.51171875 C37.03744846 41.04298139 39.04126257 42.4560864 42 44 C42.96286852 41.01380642 43.76201245 38.1361471 44 35 C42.14835964 32.24743206 42.14835964 32.24743206 40 30 C40.06851337 27.12243866 40.6563662 25.572723 42.125 23.125 C45.18336891 21.28997865 47.65608204 22.20961939 51 23 C53 25 53 25 53.3125 28.4375 C53 32 53 32 51.5 33.9375 C51.005 34.288125 50.51 34.63875 50 35 C51.12451727 37.9719385 52.22293791 40.33440687 54 43 C55.98 42.505 55.98 42.505 58 42 C58.77242269 40.16299211 58.77242269 40.16299211 59 38 C58.525625 37.54625 58.05125 37.0925 57.5625 36.625 C56 35 56 35 55.5625 32.125 C56.11919573 28.14860191 56.9343941 26.60576502 60 24 C62.8229596 23.28269059 65.1770404 23.28269059 68 24 C70.99097304 26.54232708 71.84202557 28.1574697 72.5625 32 C71.79864772 36.07387885 70.27248936 37.52745249 67 40 C64.1875 40.3125 64.1875 40.3125 62 40 C62 42.31 62 44.62 62 47 C63.32 47.33 64.64 47.66 66 48 C64.35 48 62.7 48 61 48 C61 48.99 61 49.98 61 51 C61.66 51 62.32 51 63 51 C64.00849549 54.20884927 64.25168427 55.50861642 62.6875 58.5625 C62.130625 59.366875 61.57375 60.17125 61 61 C60.70738281 61.62261719 60.41476563 62.24523437 60.11328125 62.88671875 C58.83438219 65.31438328 57.30447049 67.18556342 55.5 69.25 C54.58734375 70.30960938 54.58734375 70.30960938 53.65625 71.390625 C52 73 52 73 50 73 C50 73.99 50 74.98 50 76 C48.68 76 47.36 76 46 76 C45.67 74.02 45.34 72.04 45 70 C44.34 70 43.68 70 43 70 C42.67 71.65 42.34 73.3 42 75 C39.525 75.495 39.525 75.495 37 76 C34 72.25 34 72.25 34 70 C33.34 70 32.68 70 32 70 C32 69.34 32 68.68 32 68 C32.66 68 33.32 68 34 68 C34 67.01 34 66.02 34 65 C33.01 65.33 32.02 65.66 31 66 C30.67 65.01 30.34 64.02 30 63 C28.906875 62.690625 27.81375 62.38125 26.6875 62.0625 C22.71935894 60.91913732 21.57576511 60.10812575 19 57 C14.45032137 45.73499572 13.56287541 31.02092613 14 19 C13.34 19 12.68 19 12 19 C11.2575 17.2984375 11.2575 17.2984375 10.5 15.5625 C8.24474146 10.97844189 5.11767679 7.55756656 1.609375 3.8828125 C0 2 0 2 0 0 Z " fill="#F2D36C" transform="translate(126,175)"/>
<path d="M0 0 C1.17661508 3.67692213 1.14475933 7.1638778 1 11 C-0.75108444 12.75108444 -3.19504729 12.12613634 -5.57359314 12.12698364 C-6.78371567 12.12980347 -7.9938382 12.13262329 -9.2406311 12.13552856 C-10.59393325 12.13358396 -11.94723526 12.13153577 -13.30053711 12.12939453 C-14.71614121 12.13074855 -16.13174495 12.13252849 -17.54734802 12.13470459 C-21.40268077 12.13927925 -25.25798688 12.13748912 -29.11332011 12.1343255 C-33.14029054 12.13180158 -37.16725861 12.13413958 -41.19422913 12.13571167 C-47.95916149 12.13753348 -54.72408296 12.13512698 -61.48901367 12.13037109 C-69.3182608 12.12493065 -77.14748188 12.1266895 -84.97672838 12.1321975 C-91.68840379 12.13673093 -98.40007135 12.13737798 -105.1117478 12.13475883 C-109.1248003 12.13319704 -113.13784054 12.13299957 -117.15089226 12.13629532 C-120.92403066 12.13917728 -124.6971354 12.13719232 -128.47027016 12.13140106 C-129.85784219 12.13007512 -131.24541705 12.13046478 -132.63298798 12.13266373 C-134.52179872 12.13538173 -136.41061563 12.1313747 -138.29942322 12.12698364 C-139.35818633 12.12660662 -140.41694944 12.12622959 -141.50779629 12.12584114 C-144 12 -144 12 -146 11 C-146 7.04 -146 3.08 -146 -1 C-141.38 -1 -136.76 -1 -132 -1 C-132 -0.01 -132 0.98 -132 2 C-131.34 2 -130.68 2 -130 2 C-129.67 1.01 -129.34 0.02 -129 -1 C-116.98409618 -1.1556876 -104.9681232 -1.30381309 -92.95201588 -1.4429636 C-87.36908263 -1.50783896 -81.78620092 -1.57506894 -76.20336914 -1.64819336 C-8.89574382 -2.52488607 -8.89574382 -2.52488607 0 0 Z " fill="#F5D56C" transform="translate(301,259)"/>
<path d="M0 0 C0.66 0 1.32 0 2 0 C2.4125 0.99 2.825 1.98 3.25 3 C4.35402208 5.57733377 5.52595726 8.09476949 6.796875 10.59375 C9.72952115 16.42127134 12.49754813 22.32663952 15.2890625 28.22265625 C15.91941406 29.55103516 15.91941406 29.55103516 16.5625 30.90625 C16.96984375 31.76613525 17.3771875 32.62602051 17.796875 33.51196289 C18.92869974 35.85255257 20.11383753 38.15799883 21.3125 40.46484375 C23.22813554 44.47792283 23.41473363 45.84421995 22 50 C20.77446658 52.42645774 19.43577123 54.68423995 18 57 C17.67 56.34 17.34 55.68 17 55 C16.05125 55.825 15.1025 56.65 14.125 57.5 C11.25 60 11.25 60 9 60 C8.731875 60.969375 8.46375 61.93875 8.1875 62.9375 C7.795625 63.948125 7.40375 64.95875 7 66 C5.515 66.495 5.515 66.495 4 67 C2.79117904 69.00016466 2.79117904 69.00016466 2 71 C-0.4375 70.1875 -0.4375 70.1875 -3 69 C-3.33 68.01 -3.66 67.02 -4 66 C-4.66 66 -5.32 66 -6 66 C-6 65.01 -6 64.02 -6 63 C-7.32 63 -8.64 63 -10 63 C-10.33 63.99 -10.66 64.98 -11 66 C-11.29769287 65.52054932 -11.59538574 65.04109863 -11.90209961 64.54711914 C-13.24583407 62.38470639 -14.59163874 60.22358963 -15.9375 58.0625 C-16.64036133 56.93038086 -16.64036133 56.93038086 -17.35742188 55.77539062 C-17.80537109 55.05673828 -18.25332031 54.33808594 -18.71484375 53.59765625 C-19.12855225 52.93258057 -19.54226074 52.26750488 -19.96850586 51.58227539 C-20.90612184 50.02514658 -20.90612184 50.02514658 -22 49 C-21.62794076 43.27320586 -19.85733365 39.08721414 -17.1875 34.0625 C-16.84396484 33.39798828 -16.50042969 32.73347656 -16.14648438 32.04882812 C-15.4527518 30.70691765 -14.75597328 29.36657744 -14.05615234 28.02783203 C-10.80091986 21.82709077 -10.80091986 21.82709077 -7.9765625 15.42578125 C-6.68069546 12.20684753 -5.0360054 9.23267658 -3.375 6.1875 C-2.88773438 5.2912793 -2.88773438 5.2912793 -2.390625 4.37695312 C-1.59620849 2.91662865 -0.79844624 1.45812509 0 0 Z " fill="#F4D570" transform="translate(228,139)"/>
<path d="M0 0 C0 1.65 0 3.3 0 5 C-6.6 5 -13.2 5 -20 5 C-20 5.66 -20 6.32 -20 7 C-20.77601563 6.84660156 -21.55203125 6.69320313 -22.3515625 6.53515625 C-43.9808007 3.36255921 -66.86421553 4.78228929 -88.68041992 4.98040771 C-90.87223414 4.99892083 -93.06399552 5.0112156 -95.25585938 5.02197266 C-98.90091867 5.04878793 -102.54321421 5.10999005 -106.1875 5.1875 C-107.75262329 5.19595947 -107.75262329 5.19595947 -109.34936523 5.20458984 C-115.34710327 5.33472332 -115.34710327 5.33472332 -120.17578125 8.55078125 C-120.77777344 9.35902344 -121.37976563 10.16726563 -122 11 C-122.66 10.67 -123.32 10.34 -124 10 C-123.34 8.35 -122.68 6.7 -122 5 C-131.405 5.495 -131.405 5.495 -141 6 C-141 6.66 -141 7.32 -141 8 C-141 8.99 -141 9.98 -141 11 C-144 10 -144 10 -146 7 C-146.25760279 4.30547479 -146.08900053 1.71451625 -146 -1 C-141.38 -1 -136.76 -1 -132 -1 C-132 -0.01 -132 0.98 -132 2 C-131.34 2 -130.68 2 -130 2 C-129.67 1.01 -129.34 0.02 -129 -1 C-116.98409618 -1.1556876 -104.9681232 -1.30381309 -92.95201588 -1.4429636 C-87.36908263 -1.50783896 -81.78620092 -1.57506894 -76.20336914 -1.64819336 C-8.89574382 -2.52488607 -8.89574382 -2.52488607 0 0 Z " fill="#E8B54B" transform="translate(301,259)"/>
<path d="M0 0 C0.66 0.33 1.32 0.66 2 1 C1.44570313 1.60328125 0.89140625 2.2065625 0.3203125 2.828125 C-0.40414062 3.62734375 -1.12859375 4.4265625 -1.875 5.25 C-2.59429687 6.03890625 -3.31359375 6.8278125 -4.0546875 7.640625 C-5.76935483 9.72026168 -6.92980873 11.54419267 -8 14 C-8.66 13.01 -9.32 12.02 -10 11 C-13.08365871 10.7497843 -13.08365871 10.7497843 -16 11 C-15.34 13.31 -14.68 15.62 -14 18 C-15.32 19.32 -16.64 20.64 -18 22 C-17.505 23.485 -17.505 23.485 -17 25 C-11.39 25.33 -5.78 25.66 0 26 C0 26.33 0 26.66 0 27 C-16.5 27 -33 27 -50 27 C-48 23 -48 23 -44.9375 20.8125 C-42.90845177 19.22348633 -42.10647863 18.46727399 -41.52734375 15.92578125 C-41.42506149 14.38105681 -41.33670605 12.83535231 -41.26171875 11.2890625 C-40.82040382 7.42920353 -39.27836154 5.12461012 -37 2 C-35.0625 0.75 -35.0625 0.75 -33 1 C-30.25 3.4375 -30.25 3.4375 -28 6 C-27.20980469 5.18015625 -26.41960937 4.3603125 -25.60546875 3.515625 C-21.45205747 0.05627863 -17.49504254 0.46450416 -12.3125 0.75 C-10.62123314 0.81126854 -8.92982267 0.86872366 -7.23828125 0.921875 C-6.1251355 0.97746582 -6.1251355 0.97746582 -4.98950195 1.03417969 C-2.78764578 1.0958181 -2.78764578 1.0958181 0 0 Z " fill="#F3D46D" transform="translate(263,231)"/>
<path d="M0 0 C2.98040765 1.45053898 5.84324241 3.03992448 8.703125 4.71484375 C9.60160156 5.23626953 10.50007812 5.75769531 11.42578125 6.29492188 C13.29522454 7.38219837 15.16245271 8.47329326 17.02734375 9.56835938 C21.15713491 11.95727566 25.06909287 14.13134219 29.609375 15.62890625 C30.72828125 16.08136719 31.8471875 16.53382813 33 17 C33.71191406 19.08569336 33.71191406 19.08569336 34 21 C30.375 24 30.375 24 27 24 C28.30213912 28.52075992 30.04334953 31.89116943 32.8125 35.6875 C33.47894531 36.61949219 34.14539063 37.55148438 34.83203125 38.51171875 C37.03744846 41.04298139 39.04126257 42.4560864 42 44 C42.96286852 41.01380642 43.76201245 38.1361471 44 35 C42.14835964 32.24743206 42.14835964 32.24743206 40 30 C40.06851337 27.12243866 40.6563662 25.572723 42.125 23.125 C45.18336891 21.28997865 47.65608204 22.20961939 51 23 C53 25 53 25 53.3125 28.4375 C53 32 53 32 51.5 33.9375 C51.005 34.288125 50.51 34.63875 50 35 C50.97495626 37.69987888 51.78898602 39.75772469 53.6875 41.9375 C55 44 55 44 55.0625 46.9375 C53.68019264 50.92179769 51.67433423 53.07862939 48 55 C43.5043767 56.3085475 40.10776706 56.39712404 35.6875 54.8125 C33.05429886 53.03662016 30.96724853 51.49689237 29 49 C29 47.68 29 46.36 29 45 C29.99 44.505 29.99 44.505 31 44 C31 43.34 31 42.68 31 42 C29.01429422 40.67016515 26.9440069 39.56021541 24.84765625 38.4140625 C22.64537774 36.72859776 22.36143906 35.69645014 22 33 C22.66 33 23.32 33 24 33 C24 31.35 24 29.7 24 28 C23.01 27.67 22.02 27.34 21 27 C21.66 26.67 22.32 26.34 23 26 C22.81068652 20.23073803 22.81068652 20.23073803 19.875 15.5 C17.04443783 13.68219759 17.04443783 13.68219759 13.6875 14.375 C10 14 10 14 7.84375 11.9296875 C4.79750098 8.1439505 2.0376837 4.42704886 0 0 Z " fill="#EDBD54" transform="translate(126,175)"/>
<path d="M0 0 C1.65 0 3.3 0 5 0 C5.66 1.98 6.32 3.96 7 6 C7.66 6 8.32 6 9 6 C10.375 7.25 10.375 7.25 12 9 C12.721875 9.721875 13.44375 10.44375 14.1875 11.1875 C14.785625 11.785625 15.38375 12.38375 16 13 C12.535 15.97 12.535 15.97 9 19 C8.2575 18.175 7.515 17.35 6.75 16.5 C4.12612615 13.55155147 4.12612615 13.55155147 0 14 C-0.309375 14.78375 -0.61875 15.5675 -0.9375 16.375 C-2 19 -2 19 -3 21 C-3.10158687 22.43632545 -3.18231427 23.87417829 -3.25 25.3125 C-3.61985489 29.07168083 -3.95541771 29.94398636 -6.4375 33.0625 C-9 35 -9 35 -11 35 C-11.33 35.99 -11.66 36.98 -12 38 C-17.61 38 -23.22 38 -29 38 C-29 34 -29 34 -27.125 31.9375 C-26.42375 31.298125 -25.7225 30.65875 -25 30 C-24.34 29.01 -23.68 28.02 -23 27 C-20.525 27.99 -20.525 27.99 -18 29 C-18 27.02 -18 25.04 -18 23 C-19.051875 22.814375 -20.10375 22.62875 -21.1875 22.4375 C-24.53921383 21.51993503 -25.82952776 20.28812135 -27.73828125 17.41015625 C-28.16794189 16.77343994 -28.59760254 16.13672363 -29.0402832 15.48071289 C-29.35698975 14.99207764 -29.67369629 14.50344238 -30 14 C-28.97060303 13.94054199 -28.97060303 13.94054199 -27.92041016 13.87988281 C-24.82035453 13.68970824 -21.72305845 13.47024112 -18.625 13.25 C-17.54476562 13.188125 -16.46453125 13.12625 -15.3515625 13.0625 C-14.3203125 12.98515625 -13.2890625 12.9078125 -12.2265625 12.828125 C-11.27346191 12.7652832 -10.32036133 12.70244141 -9.33837891 12.63769531 C-6.84235528 12.24042495 -6.84235528 12.24042495 -5.76708984 10.03808594 C-5.5139502 9.36551758 -5.26081055 8.69294922 -5 8 C-4.505 7.525625 -4.01 7.05125 -3.5 6.5625 C-1.60096688 4.5843405 -0.90100969 2.56441218 0 0 Z " fill="#F2D36C" transform="translate(226,219)"/>
<path d="M0 0 C1.26026798 2.52053595 0.91874445 3.8542098 0.5625 6.625 C0.46066406 7.44226563 0.35882813 8.25953125 0.25390625 9.1015625 C0.17011719 9.72804687 0.08632812 10.35453125 0 11 C0.66 11 1.32 11 2 11 C2 11.66 2 12.32 2 13 C2.5775 12.505 3.155 12.01 3.75 11.5 C6 10 6 10 10 10 C11.6328125 11.609375 11.6328125 11.609375 13.125 13.75 C13.62257812 14.44609375 14.12015625 15.1421875 14.6328125 15.859375 C17.95125315 21.05510493 18.68445719 24.86127453 18 31 C16.28352426 35.69772307 13.79551611 38.75992528 10 42 C7.83984375 42.63671875 7.83984375 42.63671875 6 43 C-4 32.20547945 -4 32.20547945 -4 25 C-5.32 24.67 -6.64 24.34 -8 24 C-7.4740625 24.86625 -7.4740625 24.86625 -6.9375 25.75 C-5.85082593 28.35801776 -6.06934867 29.39417629 -7 32 C-7.99 32 -8.98 32 -10 32 C-10.12375 32.598125 -10.2475 33.19625 -10.375 33.8125 C-11 36 -11 36 -13 39 C-15 36 -15 36 -14.86328125 32.80859375 C-13.87539743 28.45028278 -12.27137851 24.98442744 -10.1875 21.0625 C-9.84396484 20.39798828 -9.50042969 19.73347656 -9.14648438 19.04882812 C-8.45401975 17.70937028 -7.75822952 16.37162632 -7.05908203 15.03564453 C-4.49484013 10.10695643 -1.9532525 5.20867333 0 0 Z " fill="#F4DA7A" transform="translate(221,152)"/>
<path d="M0 0 C1.921875 1.6796875 1.921875 1.6796875 3.75 3.875 C4.36359375 4.59429687 4.9771875 5.31359375 5.609375 6.0546875 C7 8 7 8 7 10 C5.5 11.625 5.5 11.625 4 13 C4.5775 13.28875 5.155 13.5775 5.75 13.875 C8.875 15.4375 8.875 15.4375 12 17 C11.45861636 21.04613035 10.30889329 23.34032307 7.75 26.5 C6.81220703 27.65822266 6.81220703 27.65822266 5.85546875 28.83984375 C3.67973527 31.37285557 1.43287263 33.7145742 -1 36 C-4 35 -4 35 -5.25 33.25 C-6.19379298 30.41862107 -5.89160225 28.82340714 -5 26 C-4.34 25.34 -3.68 24.68 -3 24 C-2.75787127 22.01871492 -2.75787127 22.01871492 -2.875 19.875 C-2.91625 18.59625 -2.9575 17.3175 -3 16 C-4.27875 15.79375 -5.5575 15.5875 -6.875 15.375 C-7.59429687 15.25898438 -8.31359375 15.14296875 -9.0546875 15.0234375 C-9.69664062 15.01570312 -10.33859375 15.00796875 -11 15 C-13.37198957 16.93602047 -13.37198957 16.93602047 -13.25 20.4375 C-13.28809647 24.10420618 -13.28809647 24.10420618 -11 27 C-11.29609803 30.84927445 -12.51907739 33.08761258 -15 36 C-17.86724686 35.42655063 -18.8614515 35.1385485 -21 33 C-20.44444444 28.44444444 -20.44444444 28.44444444 -19 27 C-18.92851801 25.64756083 -18.91600546 24.29165633 -18.9375 22.9375 C-18.958125 21.638125 -18.97875 20.33875 -19 19 C-19.99 18.67 -20.98 18.34 -22 18 C-17.61281337 13.2367688 -17.61281337 13.2367688 -14.25 11.9375 C-13.5075 11.628125 -12.765 11.31875 -12 11 C-11.85691406 10.39800781 -11.71382813 9.79601562 -11.56640625 9.17578125 C-10.8537346 6.43813912 -9.67409143 5.24084537 -7.6875 3.25 C-7.09324219 2.63640625 -6.49898438 2.0228125 -5.88671875 1.390625 C-4 0 -4 0 0 0 Z " fill="#F8F7F7" transform="translate(292,183)"/>
<path d="M0 0 C-1.42839525 3.13964105 -3.18588882 5.59247638 -5.375 8.25 C-11.60152525 16.21114974 -13.72770486 22.95556467 -15 33 C-16.65 33 -18.3 33 -20 33 C-20.66 31.02 -21.32 29.04 -22 27 C-22.391875 27.969375 -22.78375 28.93875 -23.1875 29.9375 C-25 33 -25 33 -27.6875 33.875 C-28.450625 33.91625 -29.21375 33.9575 -30 34 C-30 34.66 -30 35.32 -30 36 C-28.35 36 -26.7 36 -25 36 C-23.40821225 38.65297959 -22.93145857 40.49692539 -22.5 43.625 C-22.33300503 47.06422625 -22.33300503 47.06422625 -20 49 C-20.33 49.99 -20.66 50.98 -21 52 C-21.40992188 51.566875 -21.81984375 51.13375 -22.2421875 50.6875 C-22.78101563 50.130625 -23.31984375 49.57375 -23.875 49 C-24.40867187 48.443125 -24.94234375 47.88625 -25.4921875 47.3125 C-26.91824988 45.78114478 -26.91824988 45.78114478 -29 46 C-29.33 46.99 -29.66 47.98 -30 49 C-31.65 49 -33.3 49 -35 49 C-35.12375 48.195625 -35.2475 47.39125 -35.375 46.5625 C-35.58125 45.716875 -35.7875 44.87125 -36 44 C-36.66 43.67 -37.32 43.34 -38 43 C-37.5875 42.649375 -37.175 42.29875 -36.75 41.9375 C-34.76635382 39.7413203 -33.40363837 37.3608638 -31.984375 34.7734375 C-31.12930204 33.23294892 -30.19591533 31.73643837 -29.25 30.25 C-27.75717853 27.99190595 -27.75717853 27.99190595 -28 25 C-31.465 23.02 -31.465 23.02 -35 21 C-33.01111749 15.03335247 -25.36563927 12.66450812 -19.98828125 9.97265625 C-17.90094182 8.93439789 -15.81069519 7.90426129 -13.71069336 6.8918457 C-10.53867531 5.3475686 -7.54872746 3.76175947 -4.640625 1.7578125 C-2 0 -2 0 0 0 Z " fill="#ECCB65" transform="translate(331,175)"/>
<path d="M0 0 C2.8125 1.5625 2.8125 1.5625 5 4 C5.49320865 6.8484185 5.28796365 9.07236961 5 12 C4.67 12.33 4.34 12.66 4 13 C4.66 13.33 5.32 13.66 6 14 C6 15.65 6 17.3 6 19 C5.34 19 4.68 19 4 19 C6.37277818 24.02470674 9.21097855 25.56030983 14 28 C13.67 28.99 13.34 29.98 13 31 C12.34 31 11.68 31 11 31 C11 32.32 11 33.64 11 35 C10.46375 34.731875 9.9275 34.46375 9.375 34.1875 C6.42717399 33.95477689 5.95188505 34.5799856 3.75 36.4375 C2.38875 37.7059375 2.38875 37.7059375 1 39 C-1.27316278 33.46344737 -2.59887278 28.50492862 -3.1875 22.5625 C-3.26790527 21.82330322 -3.34831055 21.08410645 -3.43115234 20.32250977 C-3.96008697 15.1927461 -4.18758161 10.15849423 -4 5 C-4.66 5 -5.32 5 -6 5 C-6.33 3.35 -6.66 1.7 -7 0 C-4.22339666 -1.38830167 -2.95033814 -0.89196269 0 0 Z " fill="#F3D671" transform="translate(144,189)"/>
<path d="M0 0 C3.1978196 3.84760486 5.94519813 7.85074473 8.625 12.0625 C9.01945312 12.67416016 9.41390625 13.28582031 9.8203125 13.91601562 C13.59768804 19.81816491 15.27305982 22.9004448 15 30 C12.76953125 30.76953125 12.76953125 30.76953125 10 31 C7.76171875 29.19921875 7.76171875 29.19921875 5.6875 26.6875 C4.99011719 25.86636719 4.29273438 25.04523438 3.57421875 24.19921875 C2 22 2 22 2 20 C2.474375 19.5875 2.94875 19.175 3.4375 18.75 C5.58739668 16.34211572 5.65045398 14.14591416 6 11 C4.741875 10.814375 3.48375 10.62875 2.1875 10.4375 C1.47980469 10.33308594 0.77210938 10.22867188 0.04296875 10.12109375 C-2.2025342 9.86095201 -2.2025342 9.86095201 -5 11 C-5.67801034 13.90073181 -5.67801034 13.90073181 -6 17 C-5.34 17.66 -4.68 18.32 -4 19 C-4 23.65279527 -6.63184715 26.30795162 -9.52734375 29.64453125 C-11 31 -11 31 -13 31 C-13 31.66 -13 32.32 -13 33 C-14.98 33 -16.96 33 -19 33 C-19 30.69 -19 28.38 -19 26 C-18.071875 25.731875 -17.14375 25.46375 -16.1875 25.1875 C-12.4469862 23.86240553 -12.4469862 23.86240553 -10 21 C-9.71399811 17.56797729 -9.90809958 15.27570125 -11 12 C-10.59007812 11.60167969 -10.18015625 11.20335937 -9.7578125 10.79296875 C-9.21898437 10.26316406 -8.68015625 9.73335937 -8.125 9.1875 C-7.59132812 8.66542969 -7.05765625 8.14335937 -6.5078125 7.60546875 C-4.79223439 5.86740096 -4.79223439 5.86740096 -3 3 C-2.01904252 1.98131338 -1.02297922 0.97648017 0 0 Z " fill="#F3EFE4" transform="translate(207,189)"/>
<path d="M0 0 C0.33 0 0.66 0 1 0 C1 2.66666667 1 5.33333333 1 8 C2.62102968 9.71108689 4.29503463 11.37253306 6 13 C7.33333333 14.33333333 8.66666667 15.66666667 10 17 C9.34 17.99 8.68 18.98 8 20 C8.31627097 23.54223486 8.87548091 26.62644274 10 30 C12.64 30.33 15.28 30.66 18 31 C17.67 33.31 17.34 35.62 17 38 C13.11862199 38 11.00662996 37.86423829 8.01171875 35.29296875 C2.37330189 29.0008224 2.37330189 29.0008224 2 25 C2.66 24.01 3.32 23.02 4 22 C3.68269476 18.36060068 3.68269476 18.36060068 3 15 C1.72125 14.938125 0.4425 14.87625 -0.875 14.8125 C-1.59429687 14.77769531 -2.31359375 14.74289063 -3.0546875 14.70703125 C-4.01761719 14.85205078 -4.01761719 14.85205078 -5 15 C-7.33229486 17.80363259 -7.33229486 17.80363259 -6.6875 20.875 C-6.08132128 23.92779123 -6.08132128 23.92779123 -5.125 26.5 C-5 29 -5 29 -7.125 32.1875 C-9.46569986 34.7380105 -11.62980795 36.03708799 -15 37 C-16 36 -16 36 -16.421875 32.5625 C-16.34466889 26.78748267 -13.31686758 22.70728513 -10.25 18 C-9.16914761 16.29339096 -8.09098072 14.58507788 -7.015625 12.875 C-6.50064453 12.0603125 -5.98566406 11.245625 -5.45507812 10.40625 C-3.41420384 7.03127401 -1.69703958 3.55884028 0 0 Z " fill="#F7F2E8" transform="translate(251,184)"/>
<path d="M0 0 C2.86429048 1.90952699 3.74441635 3.14569507 5.0625 6.375 C5.30617698 10.05607781 5.23665771 13.69188693 5.0625 17.375 C6.3825 18.035 7.7025 18.695 9.0625 19.375 C9.0625 21.025 9.0625 22.675 9.0625 24.375 C3.1225 24.375 -2.8175 24.375 -8.9375 24.375 C-8.7725 23.055 -8.6075 21.735 -8.4375 20.375 C-8.07249028 17.26998395 -7.94773044 14.36749911 -8.125 11.25 C-7.88939949 6.3809229 -6.68880398 4.34011456 -3.9375 0.375 C-1.9375 -0.625 -1.9375 -0.625 0 0 Z " fill="#F2D673" transform="translate(229.9375,232.625)"/>
<path d="M0 0 C2.98040765 1.45053898 5.84324241 3.03992448 8.703125 4.71484375 C9.60160156 5.23626953 10.50007812 5.75769531 11.42578125 6.29492188 C13.29522454 7.38219837 15.16245271 8.47329326 17.02734375 9.56835938 C21.15713491 11.95727566 25.06909287 14.13134219 29.609375 15.62890625 C30.72828125 16.08136719 31.8471875 16.53382813 33 17 C33.71191406 19.08569336 33.71191406 19.08569336 34 21 C30.375 24 30.375 24 27 24 C28.02689648 28.10758593 29.52640383 30.78939673 32.1875 34 C35.01568189 37.56090698 35.01568189 37.56090698 34.875 41.5 C34.58625 42.325 34.2975 43.15 34 44 C33.34 44 32.68 44 32 44 C30.66666667 42.66666667 29.33333333 41.33333333 28 40 C27.113125 39.505 26.22625 39.01 25.3125 38.5 C23 37 23 37 22.1875 34.8125 C22.0946875 33.9153125 22.0946875 33.9153125 22 33 C22.66 33 23.32 33 24 33 C24 31.35 24 29.7 24 28 C23.01 27.67 22.02 27.34 21 27 C21.66 26.67 22.32 26.34 23 26 C22.81068652 20.23073803 22.81068652 20.23073803 19.875 15.5 C17.04443783 13.68219759 17.04443783 13.68219759 13.6875 14.375 C10 14 10 14 7.84375 11.9296875 C4.79750098 8.1439505 2.0376837 4.42704886 0 0 Z " fill="#EEC45B" transform="translate(126,175)"/>
<path d="M0 0 C2 0 2 0 3.5078125 1.3984375 C7.25854246 5.98266301 8.94326914 9.47476122 8.609375 15.45703125 C7.52399286 19.98641442 4.89824972 23.42894232 2 27 C-1.23987703 26.43925205 -2.75219336 25.6830797 -4.75 23.0625 C-7.2472086 19.26612057 -7.7769092 16.01162056 -7.5703125 11.5078125 C-6.48815131 6.7492681 -3.38110428 3.38110428 0 0 Z " fill="#CD684C" transform="translate(228,165)"/>
<path d="M0 0 C-1.42839525 3.13964105 -3.18588882 5.59247638 -5.375 8.25 C-11.60152525 16.21114974 -13.72770486 22.95556467 -15 33 C-16.65 33 -18.3 33 -20 33 C-20.33 31.68 -20.66 30.36 -21 29 C-20.01 29 -19.02 29 -18 29 C-18 29.99 -18 30.98 -18 32 C-17.34 32 -16.68 32 -16 32 C-17.37459289 27.50133235 -19.38727918 25.87164988 -23 23 C-23.8125 20.75 -23.8125 20.75 -24 19 C-23.34 19 -22.68 19 -22 19 C-22 18.01 -22 17.02 -22 16 C-21.34 16 -20.68 16 -20 16 C-21.9254644 13.7763932 -21.9254644 13.7763932 -25 13 C-23.84242188 12.39671875 -22.68484375 11.7934375 -21.4921875 11.171875 C-19.95303356 10.36475769 -18.41397616 9.55745624 -16.875 8.75 C-16.11445313 8.35425781 -15.35390625 7.95851562 -14.5703125 7.55078125 C-11.12406035 5.73852796 -7.77836667 3.91463468 -4.5703125 1.703125 C-2 0 -2 0 0 0 Z " fill="#F5D66A" transform="translate(331,175)"/>
<path d="M0 0 C0 0.99 0 1.98 0 3 C-0.66 3 -1.32 3 -2 3 C-2 3.66 -2 4.32 -2 5 C-1.34 5 -0.68 5 0 5 C0.45375 5.825 0.9075 6.65 1.375 7.5 C1.91125 8.325 2.4475 9.15 3 10 C4.32 10 5.64 10 7 10 C7.66 8.35 8.32 6.7 9 5 C9.66 5 10.32 5 11 5 C11.33 6.98 11.66 8.96 12 11 C14.475 11.495 14.475 11.495 17 12 C17 12.99 17 13.98 17 15 C15.35 15.33 13.7 15.66 12 16 C11.67 17.65 11.34 19.3 11 21 C10.34 21 9.68 21 9 21 C9 20.01 9 19.02 9 18 C4.38 18 -0.24 18 -5 18 C-5 21.96 -5 25.92 -5 30 C-5.33 30 -5.66 30 -6 30 C-6.05855176 26.47923768 -6.0937806 22.9586024 -6.125 19.4375 C-6.14175781 18.44685547 -6.15851563 17.45621094 -6.17578125 16.43554688 C-6.21252665 10.90536387 -6.03156808 6.1783676 -4 1 C-2 0 -2 0 0 0 Z " fill="#F3D97F" transform="translate(160,240)"/>
<path d="M0 0 C1.90625 0.484375 1.90625 0.484375 4.40625 2.609375 C6.12592218 5.90541334 6.39509751 7.8180187 5.90625 11.484375 C5.24625 12.144375 4.58625 12.804375 3.90625 13.484375 C4.13368305 16.44100466 4.51860938 18.03471188 6.46875 20.296875 C6.943125 20.68875 7.4175 21.080625 7.90625 21.484375 C3.15625 26.359375 3.15625 26.359375 0.90625 27.484375 C1.23625 25.834375 1.56625 24.184375 1.90625 22.484375 C1.24625 22.484375 0.58625 22.484375 -0.09375 22.484375 C0.23625 20.504375 0.56625 18.524375 0.90625 16.484375 C-0.00125 16.566875 -0.90875 16.649375 -1.84375 16.734375 C-5.09375 16.484375 -5.09375 16.484375 -7.40625 14.921875 C-9.66206266 11.66347894 -10.09375 9.43961721 -10.09375 5.484375 C-7.72982513 0.65374592 -5.11615694 -0.34362248 0 0 Z " fill="#F2D06A" transform="translate(268.09375,198.515625)"/>
<path d="M0 0 C0.66 0.33 1.32 0.66 2 1 C2.625 4.0625 2.625 4.0625 3 7 C4.65 7 6.3 7 8 7 C8.33 6.01 8.66 5.02 9 4 C9 4.66 9 5.32 9 6 C9.66 6.33 10.32 6.66 11 7 C11.103125 7.556875 11.20625 8.11375 11.3125 8.6875 C12.3540377 12.19085409 14.58666754 14.27726595 17 17 C14.33333333 19.66666667 11.66666667 22.33333333 9 25 C8.18982422 25.87205078 8.18982422 25.87205078 7.36328125 26.76171875 C6 28 6 28 4 28 C4.51482919 22.147205 5.45357192 16.6702363 7 11 C5.68 11 4.36 11 3 11 C2.34 12.98 1.68 14.96 1 17 C-1 14 -1 14 -2 11 C-3.65 10.67 -5.3 10.34 -7 10 C-7 9.34 -7 8.68 -7 8 C-5.35 7.67 -3.7 7.34 -2 7 C-1.34 4.69 -0.68 2.38 0 0 Z " fill="#F9F8F4" transform="translate(308,201)"/>
<path d="M0 0 C1.6328125 1.609375 1.6328125 1.609375 3.125 3.75 C3.62257812 4.44609375 4.12015625 5.1421875 4.6328125 5.859375 C7.95125315 11.05510493 8.68445719 14.86127453 8 21 C6.28352426 25.69772307 3.79551611 28.75992528 0 32 C-2.16015625 32.63671875 -2.16015625 32.63671875 -4 33 C-13.63296217 22.62009691 -13.63296217 22.62009691 -13.45703125 14.19140625 C-12.09263138 7.64928378 -6.81951762 0 0 0 Z M-4.47265625 4.4609375 C-4.99730469 5.09257812 -5.52195313 5.72421875 -6.0625 6.375 C-6.58972656 7.00148437 -7.11695313 7.62796875 -7.66015625 8.2734375 C-10.41976015 11.82954514 -10.4474431 14.91478655 -10.421875 19.3125 C-9.72765721 23.73492444 -7.35222117 27.08006039 -4 30 C-3.01 30 -2.02 30 -1 30 C2.91548738 26.05593242 5.41296194 21.51159107 5.75 15.9375 C5.42863256 10.53345271 2.92833257 6.64337581 -1 3 C-3.10908817 2.76524117 -3.10908817 2.76524117 -4.47265625 4.4609375 Z " fill="#F4E5C5" transform="translate(231,162)"/>
<path d="M0 0 C3.60772477 1.80386238 5.47634052 3.2057949 8.25 6 C8.95640625 6.70125 9.6628125 7.4025 10.390625 8.125 C12 10 12 10 12 12 C12.66 12.33 13.32 12.66 14 13 C13.3503125 13.61488281 12.700625 14.22976563 12.03125 14.86328125 C11.1959375 15.67152344 10.360625 16.47976563 9.5 17.3125 C8.6646875 18.11300781 7.829375 18.91351563 6.96875 19.73828125 C4.67171717 21.87737482 4.67171717 21.87737482 5 25 C3.68 25.33 2.36 25.66 1 26 C0.67 17.42 0.34 8.84 0 0 Z " fill="#F8F8F7" transform="translate(301,243)"/>
<path d="M0 0 C4.62 0 9.24 0 14 0 C14 0.99 14 1.98 14 3 C14.66 3 15.32 3 16 3 C16 3.66 16 4.32 16 5 C25.9 5 35.8 5 46 5 C46 5.33 46 5.66 46 6 C44.83082031 6.01417969 43.66164062 6.02835937 42.45703125 6.04296875 C40.90881543 6.08988438 39.36063956 6.13813169 37.8125 6.1875 C37.04357422 6.19330078 36.27464844 6.19910156 35.48242188 6.20507812 C31.08409774 6.37497047 29.45771003 6.61730518 25.94921875 9.55078125 C25.30597656 10.35902344 24.66273438 11.16726563 24 12 C23.34 11.67 22.68 11.34 22 11 C22.66 9.35 23.32 7.7 24 6 C14.595 6.495 14.595 6.495 5 7 C5 7.66 5 8.32 5 9 C5 9.99 5 10.98 5 12 C2 11 2 11 0 8 C-0.25760279 5.30547479 -0.08900053 2.71451625 0 0 Z " fill="#ECC55E" transform="translate(155,258)"/>
<path d="M0 0 C0.556875 0.53625 1.11375 1.0725 1.6875 1.625 C0.8625 1.975625 0.0375 2.32625 -0.8125 2.6875 C-1.6375 3.326875 -2.4625 3.96625 -3.3125 4.625 C-3.86136514 9.01592112 -3.78916082 10.91000878 -1.3125 14.625 C-1.60859803 18.47427445 -2.83157739 20.71261258 -5.3125 23.625 C-8.17974686 23.05155063 -9.1739515 22.7635485 -11.3125 20.625 C-10.75694444 16.06944444 -10.75694444 16.06944444 -9.3125 14.625 C-9.24101801 13.27256083 -9.22850546 11.91665633 -9.25 10.5625 C-9.270625 9.263125 -9.29125 7.96375 -9.3125 6.625 C-10.3025 6.295 -11.2925 5.965 -12.3125 5.625 C-4.60799632 -2.73988971 -4.60799632 -2.73988971 0 0 Z " fill="#F5F2EB" transform="translate(282.3125,195.375)"/>
<path d="M0 0 C2.49126366 1.12508681 3.47475191 2.60774047 4.9375 4.875 C4.4425 5.41125 3.9475 5.9475 3.4375 6.5 C1.51640557 9.54173285 1.48564784 11.33549143 1.9375 14.875 C2.91770375 15.8944119 3.91553008 16.89746356 4.9375 17.875 C4.66713853 20.84897616 4.08303974 21.72946026 1.9375 23.875 C0.0625 23.875 0.0625 23.875 -2.0625 22.875 C-4.3125 19.8125 -4.3125 19.8125 -6.0625 16.875 C-4.1875 13 -4.1875 13 -3.0625 11.875 C-2.55639093 7.0795846 -2.55639093 7.0795846 -4.5625 2.9375 C-5.0575 2.586875 -5.5525 2.23625 -6.0625 1.875 C-3.89659519 0.55998637 -2.56128708 -0.15522952 0 0 Z " fill="#F7F5F0" transform="translate(181.0625,195.125)"/>
<path d="M0 0 C1.8125 0.1875 1.8125 0.1875 4 1 C5.91174777 3.45796142 6.87449648 5.38817034 7.5 8.4375 C6.75055923 12.27838394 4.64681769 14.15467098 2 17 C-0.33028092 16.06788763 -1.75891532 15.30996602 -3.3125 13.3125 C-4.31999941 9.92363835 -3.79267085 7.41458212 -3 4 C-1.4375 1.5625 -1.4375 1.5625 0 0 Z " fill="#61B399" transform="translate(227,235)"/>
<path d="M0 0 C0.66 1.32 1.32 2.64 2 4 C15.86 4.495 15.86 4.495 30 5 C30 5.33 30 5.66 30 6 C23.4 6 16.8 6 10 6 C10 6.66 10 7.32 10 8 C9.18273437 7.84660156 8.36546875 7.69320313 7.5234375 7.53515625 C3.55375228 6.9322218 -0.36946033 6.65842036 -4.375 6.4375 C-5.11105469 6.39431641 -5.84710938 6.35113281 -6.60546875 6.30664062 C-8.40348068 6.20156201 -10.20171958 6.10037907 -12 6 C-11.34 4.68 -10.68 3.36 -10 2 C-14.29 1.67 -18.58 1.34 -23 1 C-23 0.67 -23 0.34 -23 0 C-19.72966072 -0.19689005 -16.45872059 -0.38089008 -13.1875 -0.5625 C-12.25873047 -0.61857422 -11.32996094 -0.67464844 -10.37304688 -0.73242188 C-9.48037109 -0.78076172 -8.58769531 -0.82910156 -7.66796875 -0.87890625 C-6.84578857 -0.9260376 -6.0236084 -0.97316895 -5.17651367 -1.02172852 C-3 -1 -3 -1 0 0 Z " fill="#EAB74D" transform="translate(271,258)"/>
<path d="M0 0 C0.66 0 1.32 0 2 0 C0.66666667 2.66666667 -0.66666667 5.33333333 -2 8 C0.11925604 10.11925604 4.6196093 9.41831017 7.5625 9.5625 C8.77196289 9.62727539 8.77196289 9.62727539 10.00585938 9.69335938 C12.00368805 9.79975262 14.0018207 9.90040888 16 10 C16 10.33 16 10.66 16 11 C-0.5 11 -17 11 -34 11 C-32.06604999 7.13209997 -31.2196994 6.12365764 -27.875 3.75 C-27.15054688 3.22921875 -26.42609375 2.7084375 -25.6796875 2.171875 C-25.12539062 1.78515625 -24.57109375 1.3984375 -24 1 C-24.66 3.97 -25.32 6.94 -26 10 C-20.06 10 -14.12 10 -8 10 C-7.67 9.01 -7.34 8.02 -7 7 C-5.37550757 5.29220027 -3.70779973 3.62449243 -2 2 C-1.34 1.34 -0.68 0.68 0 0 Z " fill="#EDCA64" transform="translate(247,247)"/>
<path d="M0 0 C0 0.99 0 1.98 0 3 C1.65 2.67 3.3 2.34 5 2 C4.39816251 4.02045442 3.72693904 6.02111039 3 8 C2.01 8.495 2.01 8.495 1 9 C1.99 10.65 2.98 12.3 4 14 C-1.21567553 14.42751439 -1.21567553 14.42751439 -4 14 C-6.0625 11.9375 -6.0625 11.9375 -7 9 C-6.9375 5.3125 -6.9375 5.3125 -6 2 C-3.83076342 0.3905664 -2.68076871 0 0 0 Z " fill="#EEC75D" transform="translate(265,200)"/>
<path d="M0 0 C3.18067585 0.99776724 4.60577982 2.3140467 6.90234375 4.70703125 C7.93101562 5.75503906 7.93101562 5.75503906 8.98046875 6.82421875 C10.65234375 8.83203125 10.65234375 8.83203125 11.65234375 11.83203125 C13.65250841 13.04085221 13.65250841 13.04085221 15.65234375 13.83203125 C15.65234375 14.49203125 15.65234375 15.15203125 15.65234375 15.83203125 C10.93143165 14.4515221 7.08022707 12.47923556 2.90234375 9.89453125 C2.32613281 9.54712891 1.74992188 9.19972656 1.15625 8.84179688 C-1.77660328 7.02670935 -3.40277406 5.74935453 -5.34765625 2.83203125 C-3.58755482 0.51610831 -2.98409293 -0.21350415 0 0 Z " fill="#F7F5F1" transform="translate(132.34765625,171.16796875)"/>
<path d="M0 0 C1.27875 0.165 2.5575 0.33 3.875 0.5 C4.535 1.49 5.195 2.48 5.875 3.5 C4.225 3.5 2.575 3.5 0.875 3.5 C1.205 5.15 1.535 6.8 1.875 8.5 C1.276875 8.7475 0.67875 8.995 0.0625 9.25 C-2.41147521 10.66370012 -3.55870255 12.15055383 -5.125 14.5 C-7.58968444 12.65148667 -8.09047258 11.7268945 -8.5625 8.625 C-7.79507581 3.14339865 -5.62389006 0.2249556 0 0 Z " fill="#F5D878" transform="translate(190.125,198.5)"/>
<path d="M0 0 C2.64 0 5.28 0 8 0 C9 3 9 3 8.00390625 5.26171875 C7.52824219 6.06222656 7.05257813 6.86273438 6.5625 7.6875 C6.08941406 8.49574219 5.61632812 9.30398437 5.12890625 10.13671875 C4.57009766 11.05904297 4.57009766 11.05904297 4 12 C2.35 12 0.7 12 -1 12 C-1.12375 11.195625 -1.2475 10.39125 -1.375 9.5625 C-1.684375 8.2940625 -1.684375 8.2940625 -2 7 C-2.66 6.67 -3.32 6.34 -4 6 C-3.525625 5.566875 -3.05125 5.13375 -2.5625 4.6875 C-0.76313043 2.97690387 -0.76313043 2.97690387 0 0 Z " fill="#EFC052" transform="translate(297,212)"/>
<path d="M0 0 C4.95 0 9.9 0 15 0 C13.73046875 1.46484375 12.4609375 2.9296875 11.19140625 4.39453125 C9.79128769 6.10712971 9.79128769 6.10712971 9 9 C7.35443434 10.03435556 5.6829392 11.02763513 4 12 C1.94319208 13.60778647 -0.0201325 15.29639308 -2 17 C-2 14 -2 14 -0.65234375 12.53515625 C0.49110049 11.55320072 1.63694153 10.57402931 2.78515625 9.59765625 C4.21844281 8.0756466 4.21844281 8.0756466 3.87109375 6.05859375 C2.89878354 3.53058878 2.89878354 3.53058878 0 0 Z " fill="#EBEBEC" transform="translate(210,272)"/>
<path d="M0 0 C4.95 0 9.9 0 15 0 C13.76302083 1.46484375 12.52604167 2.9296875 11.2890625 4.39453125 C10.10798901 5.8655046 9.04641471 7.43037794 8 9 C6.90848711 10.05656297 5.78035839 11.07615692 4.625 12.0625 C4.03976562 12.56910156 3.45453125 13.07570313 2.8515625 13.59765625 C0.98076238 15.01457027 -0.87250277 16.0206015 -3 17 C-1.63629701 14.00779732 -0.05091917 11.70973471 2.125 9.25 C2.66382813 8.63640625 3.20265625 8.0228125 3.7578125 7.390625 C4.37269531 6.70226562 4.37269531 6.70226562 5 6 C3.35 4.02 1.7 2.04 0 0 Z " fill="#EBEBEC" transform="translate(283,272)"/>
<path d="M0 0 C0.66 0 1.32 0 2 0 C2.33 1.98 2.66 3.96 3 6 C4.65 6.33 6.3 6.66 8 7 C8 7.99 8 8.98 8 10 C6.35 10.33 4.7 10.66 3 11 C2.67 12.65 2.34 14.3 2 16 C1.34 16 0.68 16 0 16 C-0.33 14.02 -0.66 12.04 -1 10 C-2.65 9.67 -4.3 9.34 -6 9 C-5.67 8.01 -5.34 7.02 -5 6 C-4.01 5.67 -3.02 5.34 -2 5 C-0.78130071 2.49552484 -0.78130071 2.49552484 0 0 Z " fill="#F3E7BA" transform="translate(169,245)"/>
<path d="M0 0 C0 0.99 0 1.98 0 3 C-0.66 3 -1.32 3 -2 3 C-2 3.99 -2 4.98 -2 6 C-2.66 6 -3.32 6 -4 6 C-4 7.98 -4 9.96 -4 12 C-5.4589426 11.52269162 -6.91713496 11.04308958 -8.375 10.5625 C-9.18710937 10.29566406 -9.99921875 10.02882812 -10.8359375 9.75390625 C-13 9 -13 9 -15 8 C-13.76741948 4.30225843 -12.11359358 3.63908286 -8.77734375 1.8515625 C-5.70248438 0.37833318 -3.39995942 0 0 0 Z " fill="#ECBE53" transform="translate(311,188)"/>
<path d="M0 0 C1.67542976 0.28604898 3.34385343 0.61781233 5 1 C4.49614177 5.40875955 3.0886933 7.82550966 0 11 C-2.75 12.3125 -2.75 12.3125 -5 13 C-6 12 -6 12 -6.375 8.125 C-6.36328125 5.94140625 -6.36328125 5.94140625 -6 4 C-3.5625 2.0625 -3.5625 2.0625 -1 1 C-0.67 0.67 -0.34 0.34 0 0 Z " fill="#F8F5F0" transform="translate(241,208)"/>
<path d="M0 0 C0.66 0.33 1.32 0.66 2 1 C2.625 4.0625 2.625 4.0625 3 7 C4.65 7 6.3 7 8 7 C8.33 6.01 8.66 5.02 9 4 C9 4.66 9 5.32 9 6 C9.66 6.33 10.32 6.66 11 7 C9 9 9 9 6.375 9.125 C5.59125 9.08375 4.8075 9.0425 4 9 C5.32 9.33 6.64 9.66 8 10 C7.67 10.66 7.34 11.32 7 12 C5.68 11.67 4.36 11.34 3 11 C2.34 12.98 1.68 14.96 1 17 C-1 14 -1 14 -2 11 C-3.65 10.67 -5.3 10.34 -7 10 C-7 9.34 -7 8.68 -7 8 C-5.35 7.67 -3.7 7.34 -2 7 C-1.34 4.69 -0.68 2.38 0 0 Z " fill="#F8F3D9" transform="translate(308,201)"/>
<path d="M0 0 C2.76439483 1.84292989 3.73318491 3.3175753 5.0625 6.375 C5.69307627 10.64890585 5.91251427 12.92874384 3.71484375 16.66796875 C2.23374079 18.64627412 0.70877309 20.53274202 -0.9375 22.375 C-4.73594086 20.63273993 -6.23309476 19.29513204 -7.9375 15.375 C-8.66246397 8.95389059 -7.60521075 5.66081844 -3.9375 0.375 C-1.9375 -0.625 -1.9375 -0.625 0 0 Z M-2.9375 2.375 C-5.87147609 5.71647277 -6.95248839 7.50567341 -6.875 12 C-5.98807796 15.19291936 -5.15565738 16.96395937 -2.9375 19.375 C0.42056998 17.9854538 2.38302848 16.64554981 4.0625 13.375 C3.90211666 8.88426647 3.37425485 5.55937966 0.0625 2.375 C-0.9275 2.375 -1.9175 2.375 -2.9375 2.375 Z " fill="#E0ECCC" transform="translate(229.9375,232.625)"/>
<path d="M0 0 C0.33 0 0.66 0 1 0 C1.13277344 1.15757812 1.26554688 2.31515625 1.40234375 3.5078125 C1.58065082 5.04688408 1.75904062 6.58594607 1.9375 8.125 C2.02451172 8.88554687 2.11152344 9.64609375 2.20117188 10.4296875 C2.6915487 14.64329577 3.25902978 18.821195 4 23 C0.16309363 21.43681592 -2.39154889 19.2046685 -5 16 C-5.0625 13.3125 -5.0625 13.3125 -4 11 C-2.68 10.34 -1.36 9.68 0 9 C0 6.03 0 3.06 0 0 Z " fill="#F9F8F6" transform="translate(140,203)"/>
<path d="M0 0 C3 1 3 1 4.1875 2.625 C5.27499354 5.80382728 5.1282071 8.66661533 5 12 C2.75 12.75 2.75 12.75 0 13 C-2.375 11.4375 -2.375 11.4375 -4 9 C-3.93088668 5.61344731 -3.62064369 3.74477242 -1.4375 1.125 C-0.963125 0.75375 -0.48875 0.3825 0 0 Z " fill="#F9F7F3" transform="translate(217,207)"/>
<path d="M0 0 C-1.06478542 3.10000819 -1.95797481 3.97462191 -4.8203125 5.703125 C-6.45613281 6.46882812 -6.45613281 6.46882812 -8.125 7.25 C-9.22070312 7.77078125 -10.31640625 8.2915625 -11.4453125 8.828125 C-12.28835938 9.21484375 -13.13140625 9.6015625 -14 10 C-14 9.01 -14 8.02 -14 7 C-14.66 6.67 -15.32 6.34 -16 6 C-14.75803878 4.84545838 -13.50607155 3.70167438 -12.25 2.5625 C-11.55390625 1.92441406 -10.8578125 1.28632813 -10.140625 0.62890625 C-6.32394096 -2.27539529 -4.08407852 -2.4796191 0 0 Z " fill="#F8F7F4" transform="translate(330,173)"/>
<path d="M0 0 C0.99 0.33 1.98 0.66 3 1 C2.33871094 1.60328125 1.67742187 2.2065625 0.99609375 2.828125 C0.15175781 3.62734375 -0.69257813 4.4265625 -1.5625 5.25 C-2.40941406 6.03890625 -3.25632813 6.8278125 -4.12890625 7.640625 C-6.23491739 9.77595797 -6.23491739 9.77595797 -5.9375 12.125 C-4.51262221 14.97475559 -2.31974422 16.85869765 0 19 C-0.66 19.66 -1.32 20.32 -2 21 C-2.38671875 20.55527344 -2.7734375 20.11054688 -3.171875 19.65234375 C-3.69265625 19.08644531 -4.2134375 18.52054688 -4.75 17.9375 C-5.26046875 17.36902344 -5.7709375 16.80054688 -6.296875 16.21484375 C-7.91454097 14.80114062 -7.91454097 14.80114062 -9.9375 15.0625 C-12.62585221 16.28447828 -14.21787695 17.92877079 -16.25 20.0625 C-16.95640625 20.79597656 -17.6628125 21.52945313 -18.390625 22.28515625 C-19.18726563 23.13400391 -19.18726563 23.13400391 -20 24 C-20 21 -20 21 -17.75 18.5625 C-16.8425 17.716875 -15.935 16.87125 -15 16 C-12.79712208 13.86387596 -10.86316571 11.820405 -9 9.375 C-7.02175093 7.02582923 -5.68744601 6.29738773 -3 5 C-2.67 4.01 -2.34 3.02 -2 2 C-1.34 2 -0.68 2 0 2 C0 1.34 0 0.68 0 0 Z " fill="#F3F3F5" transform="translate(228,122)"/>
<path d="M0 0 C0.99 0.33 1.98 0.66 3 1 C0.69 5.62 -1.62 10.24 -4 15 C-8 13 -8 13 -9.02734375 11.171875 C-9 9 -9 9 -7.12890625 6.640625 C-6.28199219 5.85171875 -5.43507812 5.0628125 -4.5625 4.25 C-3.71816406 3.45078125 -2.87382812 2.6515625 -2.00390625 1.828125 C-1.34261719 1.22484375 -0.68132812 0.6215625 0 0 Z " fill="#F5F4F2" transform="translate(216,158)"/>
<path d="M0 0 C13.2 0 26.4 0 40 0 C40 0.33 40 0.66 40 1 C31.585 1.495 31.585 1.495 23 2 C22.67 2.99 22.34 3.98 22 5 C22.66 5 23.32 5 24 5 C24.33 5.99 24.66 6.98 25 8 C24.071875 7.649375 23.14375 7.29875 22.1875 6.9375 C19.0197047 5.67617372 19.0197047 5.67617372 16 7 C16.33 5.35 16.66 3.7 17 2 C11.39 1.67 5.78 1.34 0 1 C0 0.67 0 0.34 0 0 Z " fill="#EEC55B" transform="translate(210,263)"/>
<path d="M0 0 C4.62 0 9.24 0 14 0 C14 1.65 14 3.3 14 5 C9.38 5 4.76 5 0 5 C0 3.35 0 1.7 0 0 Z " fill="#E7B851" transform="translate(155,258)"/>
<path d="M0 0 C0.33 0 0.66 0 1 0 C1 1.98 1 3.96 1 6 C1.66 6 2.32 6 3 6 C3 6.99 3 7.98 3 9 C2.34 9.66 1.68 10.32 1 11 C1 11.99 1 12.98 1 14 C-2 16.1875 -2 16.1875 -5 18 C-5.67090715 10.75420281 -3.58125682 6.24161903 0 0 Z " fill="#F8F6F2" transform="translate(322,186)"/>
<path d="M0 0 C0.66 0.33 1.32 0.66 2 1 C1.44570313 1.60328125 0.89140625 2.2065625 0.3203125 2.828125 C-0.40414063 3.62734375 -1.12859375 4.4265625 -1.875 5.25 C-2.59429687 6.03890625 -3.31359375 6.8278125 -4.0546875 7.640625 C-5.76935483 9.72026168 -6.92980873 11.54419267 -8 14 C-8.99 12.35 -9.98 10.7 -11 9 C-10.030625 8.360625 -9.06125 7.72125 -8.0625 7.0625 C-5.23963731 5.3034741 -5.23963731 5.3034741 -4 4 C-7.3 4 -10.6 4 -14 4 C-13.67 4.99 -13.34 5.98 -13 7 C-14.32 6.34 -15.64 5.68 -17 5 C-17 4.34 -17 3.68 -17 3 C-17.99 2.34 -18.98 1.68 -20 1 C-18.21142578 1.01740234 -18.21142578 1.01740234 -16.38671875 1.03515625 C-14.82031406 1.04453592 -13.25390769 1.05363593 -11.6875 1.0625 C-10.50897461 1.07506836 -10.50897461 1.07506836 -9.30664062 1.08789062 C-8.1706543 1.09272461 -8.1706543 1.09272461 -7.01171875 1.09765625 C-5.96697388 1.10551147 -5.96697388 1.10551147 -4.90112305 1.11352539 C-2.77502032 1.06895991 -2.77502032 1.06895991 0 0 Z " fill="#EDC95E" transform="translate(263,231)"/>
<path d="M0 0 C2.62187494 1.04874998 3.79371361 1.64931313 5.25 4.125 C5.4975 4.74375 5.745 5.3625 6 6 C4.35 7.65 2.7 9.3 1 11 C0.01 10.67 -0.98 10.34 -2 10 C-2.6875 6.6875 -2.6875 6.6875 -3 3 C-1.5625 1.0625 -1.5625 1.0625 0 0 Z " fill="#F9F8F6" transform="translate(290,208)"/>
<path d="M0 0 C0.99 0.99 1.98 1.98 3 3 C1.02 4.65 -0.96 6.3 -3 8 C-2.40072174 11.35595828 -1.15377564 13.37801226 1 16 C-2 16 -2 16 -3.6875 14.5 C-4.120625 14.005 -4.55375 13.51 -5 13 C-8.16115776 14.36983503 -8.9927092 14.9890638 -11 18 C-10.25 13.25 -10.25 13.25 -8 11 C-7.87625 10.175 -7.7525 9.35 -7.625 8.5 C-7.41875 7.675 -7.2125 6.85 -7 6 C-5.125 4.9375 -5.125 4.9375 -3 4 C-1.26574227 1.96682993 -1.26574227 1.96682993 0 0 Z " fill="#EDE9E3" transform="translate(297,196)"/>
<path d="M0 0 C-1.44578761 3.1563977 -3.2190566 5.7213879 -5.375 8.4375 C-6.30119141 9.60925781 -6.30119141 9.60925781 -7.24609375 10.8046875 C-7.82488281 11.52914062 -8.40367187 12.25359375 -9 13 C-9.804375 14.010625 -10.60875 15.02125 -11.4375 16.0625 C-11.953125 16.701875 -12.46875 17.34125 -13 18 C-13.33 16.02 -13.66 14.04 -14 12 C-12.68 12 -11.36 12 -10 12 C-9.855625 11.38125 -9.71125 10.7625 -9.5625 10.125 C-9 8 -9 8 -8 6 C-8.66 5.67 -9.32 5.34 -10 5 C-8.71186658 4.16121545 -7.41936744 3.32913217 -6.125 2.5 C-5.40570313 2.0359375 -4.68640625 1.571875 -3.9453125 1.09375 C-2 0 -2 0 0 0 Z " fill="#F4D774" transform="translate(331,175)"/>
<path d="M0 0 C0.33 0 0.66 0 1 0 C1.33 4.29 1.66 8.58 2 13 C4.64 10.36 7.28 7.72 10 5 C10.99 5.33 11.98 5.66 13 6 C12.02546875 6.92232422 12.02546875 6.92232422 11.03125 7.86328125 C10.1959375 8.67152344 9.360625 9.47976563 8.5 10.3125 C7.6646875 11.11300781 6.829375 11.91351563 5.96875 12.73828125 C3.67171717 14.87737482 3.67171717 14.87737482 4 18 C2.68 18.33 1.36 18.66 0 19 C0 12.73 0 6.46 0 0 Z " fill="#EEE9DB" transform="translate(302,250)"/>
<path d="M0 0 C2.31 0 4.62 0 7 0 C6.67 0.99 6.34 1.98 6 3 C6.66 4.32 7.32 5.64 8 7 C4.37 7 0.74 7 -3 7 C-2.01 4.69 -1.02 2.38 0 0 Z " fill="#EDCF6B" transform="translate(203,264)"/>
<path d="M0 0 C13.86 0 27.72 0 42 0 C42 0.33 42 0.66 42 1 C35.4 1 28.8 1 22 1 C22 1.66 22 2.32 22 3 C21.18273437 2.84660156 20.36546875 2.69320313 19.5234375 2.53515625 C15.55375228 1.9322218 11.63053967 1.65842036 7.625 1.4375 C6.88894531 1.39431641 6.15289062 1.35113281 5.39453125 1.30664062 C3.59651932 1.20156201 1.79828042 1.10037907 0 1 C0 0.67 0 0.34 0 0 Z " fill="#EBC45B" transform="translate(259,263)"/>
<path d="M0 0 C2.31 0.33 4.62 0.66 7 1 C7 1.33 7 1.66 7 2 C4.69 2.66 2.38 3.32 0 4 C-0.73334429 7.97754128 -0.73334429 7.97754128 -1 12 C-3.63892176 13.78305524 -5.97178863 14.99059621 -9 16 C-7.56691865 12.04093183 -5.66858051 8.71281819 -3.375 5.1875 C-2.74335938 4.21167969 -2.11171875 3.23585937 -1.4609375 2.23046875 C-0.73777344 1.12638672 -0.73777344 1.12638672 0 0 Z " fill="#EFEAE0" transform="translate(245,196)"/>
<path d="M0 0 C2.8580389 -0.23816991 5.19811145 -0.42242213 8 0 C10.99993115 2.54994148 11.85480459 4.12882756 12.5 8 C11.89129901 11.65220595 10.50781019 13.33545168 8 16 C8.59950296 12.31733897 9.24758891 8.65456815 10 5 C7.69 4.67 5.38 4.34 3 4 C3 3.01 3 2.02 3 1 C1.68 1.33 0.36 1.66 -1 2 C-0.67 1.34 -0.34 0.68 0 0 Z " fill="#F5DD83" transform="translate(262,199)"/>
<path d="M0 0 C1.9375 0.6875 1.9375 0.6875 4 2 C4.625 4.5625 4.625 4.5625 5 7 C5.66 7.33 6.32 7.66 7 8 C3.37 8 -0.26 8 -4 8 C-2.25 2.25 -2.25 2.25 0 0 Z " fill="#ECCC67" transform="translate(253,263)"/>
<path d="M0 0 C0.33 0 0.66 0 1 0 C1.1953125 2.05078125 1.390625 4.1015625 1.5859375 6.15234375 C1.72257813 6.76207031 1.85921875 7.37179688 2 8 C2.66 8.33 3.32 8.66 4 9 C2.87811441 10.14888283 1.75238316 11.29401137 0.625 12.4375 C-0.31472656 13.39462891 -0.31472656 13.39462891 -1.2734375 14.37109375 C-3 16 -3 16 -5 17 C-6.13350534 19.01669827 -6.13350534 19.01669827 -7 21 C-8.65 21 -10.3 21 -12 21 C-7.45454545 16.2020202 -7.45454545 16.2020202 -4.75 15 C-4.1725 14.67 -3.595 14.34 -3 14 C-2.26259783 11.48051222 -2.26259783 11.48051222 -2 9 C-1.67 8.67 -1.34 8.34 -1 8 C-0.76924918 6.65252916 -0.58846937 5.29622435 -0.4375 3.9375 C-0.293125 2.638125 -0.14875 1.33875 0 0 Z " fill="#EACF78" transform="translate(239,175)"/>
<path d="M0 0 C0.99 0.33 1.98 0.66 3 1 C2.16855469 1.68835938 2.16855469 1.68835938 1.3203125 2.390625 C0.59585937 3.00421875 -0.12859375 3.6178125 -0.875 4.25 C-1.59429687 4.85328125 -2.31359375 5.4565625 -3.0546875 6.078125 C-5.32640834 8.1161976 -5.32640834 8.1161976 -7 12 C-4.36 14.64 -1.72 17.28 1 20 C0.34 20.66 -0.32 21.32 -1 22 C-2.34823166 20.78719339 -3.67816082 19.55401909 -5 18.3125 C-5.7425 17.62800781 -6.485 16.94351563 -7.25 16.23828125 C-9 14 -9 14 -9.53125 11.53125 C-8.79275728 8.01254941 -7.10818476 6.61456082 -4.5 4.1875 C-3.6646875 3.39730469 -2.829375 2.60710937 -1.96875 1.79296875 C-1.3190625 1.20128906 -0.669375 0.60960937 0 0 Z " fill="#EBEBED" transform="translate(313,134)"/>
<path d="M0 0 C0.66 0 1.32 0 2 0 C2.33 1.98 2.66 3.96 3 6 C4.65 6.33 6.3 6.66 8 7 C8 7.66 8 8.32 8 9 C5.36 9.33 2.72 9.66 0 10 C-1.125 3.375 -1.125 3.375 0 0 Z " fill="#F6F3E6" transform="translate(169,245)"/>
<path d="M0 0 C-1.15173355 2.46800047 -2.04783565 4.04783565 -4 6 C-6.625 6.125 -6.625 6.125 -9 6 C-9 5.34 -9 4.68 -9 4 C-9.99 3.67 -10.98 3.34 -12 3 C-12 2.34 -12 1.68 -12 1 C-7.915021 0.45533613 -4.1274515 0 0 0 Z " fill="#F2D36A" transform="translate(212,233)"/>
<path d="M0 0 C3.77727089 1.81309003 7.37269822 3.9073259 11 6 C10.67 7.32 10.34 8.64 10 10 C10.66 10 11.32 10 12 10 C11.34 11.32 10.68 12.64 10 14 C8.70376621 12.42040347 7.41318673 10.83616587 6.125 9.25 C5.40570313 8.36828125 4.68640625 7.4865625 3.9453125 6.578125 C2.31557412 4.41823076 1.09215995 2.460234 0 0 Z " fill="#F6D77B" transform="translate(126,175)"/>
<path d="M0 0 C-0.0825 0.9075 -0.165 1.815 -0.25 2.75 C0.05348054 6.69524707 1.10925121 7.47059481 4 10 C4 10.66 4 11.32 4 12 C0.75728494 11.4409112 -0.93057424 10.5867822 -3 8 C-3 7.34 -3 6.68 -3 6 C-3.99 6.33 -4.98 6.66 -6 7 C-6 5.02 -6 3.04 -6 1 C-3.92446352 0.4465236 -2.15634036 0 0 0 Z " fill="#EBCA65" transform="translate(246,177)"/>
<path d="M0 0 C0 0.99 0 1.98 0 3 C-0.66 3.66 -1.32 4.32 -2 5 C-1.67 5.99 -1.34 6.98 -1 8 C-1.66 8 -2.32 8 -3 8 C-3.0825 8.61875 -3.165 9.2375 -3.25 9.875 C-4 12 -4 12 -6.0625 13.25 C-6.701875 13.4975 -7.34125 13.745 -8 14 C-8.8440534 11.63665048 -9.1709445 10.44160663 -8.25 8.0625 C-6.87007928 5.78563082 -5.43298243 4.42687457 -3.375 2.75 C-2.74335938 2.22921875 -2.11171875 1.7084375 -1.4609375 1.171875 C-0.73777344 0.59179688 -0.73777344 0.59179688 0 0 Z " fill="#F2CA66" transform="translate(296,213)"/>
<path d="M0 0 C1 2 1 2 0.375 4.4375 C-1.30789393 7.57380232 -2.91512851 8.31066561 -6 10 C-8.44767886 12.23787781 -10.15073871 14.22610806 -12 17 C-12.66 16.34 -13.32 15.68 -14 15 C-12.68 12.36 -11.36 9.72 -10 7 C-9.67 7.99 -9.34 8.98 -9 10 C-5.73991357 6.83047153 -2.77762123 3.60062011 0 0 Z " fill="#E9C460" transform="translate(279,215)"/>
<path d="M0 0 C0.66 0 1.32 0 2 0 C2.05399736 1.45792884 2.09279177 2.91642712 2.125 4.375 C2.14820313 5.18710938 2.17140625 5.99921875 2.1953125 6.8359375 C2 9 2 9 0 11 C-3.125 11.125 -3.125 11.125 -6 11 C-5.38125 10.113125 -4.7625 9.22625 -4.125 8.3125 C-2.34602259 5.53938816 -1.08916398 3.0859646 0 0 Z " fill="#EDC051" transform="translate(194,203)"/>
<path d="M0 0 C0.33 0 0.66 0 1 0 C1.07476562 0.556875 1.14953125 1.11375 1.2265625 1.6875 C2.31283842 7.99216022 4.61458046 12.32857484 9 17 C9.66 17.33 10.32 17.66 11 18 C11 18.66 11 19.32 11 20 C7.46340908 19.43997584 6.04440308 18.32225676 3.8125 15.5625 C3.04873047 14.63630859 3.04873047 14.63630859 2.26953125 13.69140625 C-0.0339178 10.62250337 -0.1110465 8.66162713 -0.0625 4.875 C-0.05347656 3.96492187 -0.04445312 3.05484375 -0.03515625 2.1171875 C-0.02355469 1.41851562 -0.01195312 0.71984375 0 0 Z " fill="#F6E9D3" transform="translate(219,175)"/>
<path d="M0 0 C0.33 0.66 0.66 1.32 1 2 C1.99 2 2.98 2 4 2 C4.875 4.625 4.875 4.625 5 8 C3.33734473 10.40462195 1.3779081 12.30235422 -1 14 C-1.66 14 -2.32 14 -3 14 C-3.33 14.66 -3.66 15.32 -4 16 C-3.42415568 13.61435923 -2.77772405 11.33317216 -2 9 C-1.01 8.67 -0.02 8.34 1 8 C0.835 7.4225 0.67 6.845 0.5 6.25 C0 4 0 4 0 0 Z " fill="#ECCC66" transform="translate(213,175)"/>
<path d="M0 0 C0.66 0 1.32 0 2 0 C1.51675181 5.15464734 -1.18610761 8.81550319 -4 13 C-5 11 -6 9 -7 7 C-5.625 5.5 -5.625 5.5 -4 4 C-3.34 4 -2.68 4 -2 4 C-1.34 2.68 -0.68 1.36 0 0 Z " fill="#F1C65B" transform="translate(243,194)"/>
<path d="M0 0 C0.99 0 1.98 0 3 0 C3 0.66 3 1.32 3 2 C3.99 2 4.98 2 6 2 C5.44271087 5.34373475 4.64826111 8.03312999 3 11 C1.35 11 -0.3 11 -2 11 C-0.62845496 8.04590299 0.98863724 5.55991624 3 3 C2.01 2.67 1.02 2.34 0 2 C0 1.34 0 0.68 0 0 Z " fill="#E6B74B" transform="translate(298,213)"/>
<path d="M0 0 C0 1.65 0 3.3 0 5 C-2.375 5.625 -2.375 5.625 -5 6 C-5.66 5.34 -6.32 4.68 -7 4 C-7 2.68 -7 1.36 -7 0 C-4.3333581 -1.33332095 -2.83319697 -0.67102033 0 0 Z " fill="#F5EFC9" transform="translate(254,242)"/>
<path d="M0 0 C1.2065625 0.0309375 1.2065625 0.0309375 2.4375 0.0625 C3.5625 4.8125 3.5625 4.8125 2.4375 7.0625 C0.7875 6.7325 -0.8625 6.4025 -2.5625 6.0625 C-2.94468767 4.40635343 -3.27645102 2.73792976 -3.5625 1.0625 C-2.5625 0.0625 -2.5625 0.0625 0 0 Z " fill="#F2E5BA" transform="translate(205.5625,240.9375)"/>
<path d="M0 0 C0 3.92709135 -1.27900462 4.8189713 -3.875 7.6875 C-4.95394531 8.89986328 -4.95394531 8.89986328 -6.0546875 10.13671875 C-8 12 -8 12 -10 12 C-10 12.66 -10 13.32 -10 14 C-10.99 14 -11.98 14 -13 14 C-11.55922954 10.63820226 -9.75249979 8.40843732 -7 6 C-6.34 6 -5.68 6 -5 6 C-4.731875 5.38125 -4.46375 4.7625 -4.1875 4.125 C-3 2 -3 2 0 0 Z " fill="#E7CA69" transform="translate(186,236)"/>
<path d="M0 0 C0.99 0.33 1.98 0.66 3 1 C3 1.99 3 2.98 3 4 C3.99 4 4.98 4 6 4 C6 4.66 6 5.32 6 6 C5.01 6.33 4.02 6.66 3 7 C2.67 7.99 2.34 8.98 2 10 C1.34 10 0.68 10 0 10 C0 8.68 0 7.36 0 6 C-1.32 5.67 -2.64 5.34 -4 5 C-3.01 4.67 -2.02 4.34 -1 4 C-0.26676204 1.98491642 -0.26676204 1.98491642 0 0 Z " fill="#F6F1CD" transform="translate(293,221)"/>
<path d="M0 0 C1.65 0 3.3 0 5 0 C1 4 -3 8 -7 12 C-7.33 11.01 -7.66 10.02 -8 9 C-8.66 8.34 -9.32 7.68 -10 7 C-3.375 3.125 -3.375 3.125 0 2 C0 1.34 0 0.68 0 0 Z " fill="#EFECE2" transform="translate(311,231)"/>
<path d="M0 0 C3.2542015 2.83430453 4.5206753 4.68607774 5 9 C5.66 9 6.32 9 7 9 C7 11.64 7 14.28 7 17 C6.67 16.34 6.34 15.68 6 15 C5.34 14.67 4.68 14.34 4 14 C4 12.68 4 11.36 4 10 C3.34 10 2.68 10 2 10 C1.855625 8.906875 1.71125 7.81375 1.5625 6.6875 C1.11711896 3.06877013 1.11711896 3.06877013 0 0 Z " fill="#F4EEDA" transform="translate(133,185)"/>
<path d="M0 0 C-0.5 2.875 -0.5 2.875 -2 6 C-4.68310961 7.18275852 -7.0681289 7.52711756 -10 8 C-7.80926025 2.88827391 -5.76796198 0 0 0 Z " fill="#EFCB65" transform="translate(323,181)"/>
<path d="M0 0 C0.33 0 0.66 0 1 0 C2.60078663 9.92920354 2.60078663 9.92920354 0 14 C-1.91426787 15.83302573 -3.88284948 17.38912461 -6 19 C-6.66 18.34 -7.32 17.68 -8 17 C-7.34 17 -6.68 17 -6 17 C-5.731875 16.443125 -5.46375 15.88625 -5.1875 15.3125 C-4 13 -4 13 -2.4375 10.75 C-0.53366744 7.10788555 -0.34607051 4.08363201 0 0 Z " fill="#EED8C4" transform="translate(236,175)"/>
<path d="M0 0 C0.66 0.33 1.32 0.66 2 1 C-0.64 3.64 -3.28 6.28 -6 9 C-4.35575624 12.8155338 -4.35575624 12.8155338 -2.375 14.625 C-1.92125 15.07875 -1.4675 15.5325 -1 16 C-1 16.66 -1 17.32 -1 18 C-3.86095641 16.7175023 -6.11365918 15.54656011 -8 13 C-8.328125 10.6640625 -8.328125 10.6640625 -8 8 C-6.25 5.76171875 -6.25 5.76171875 -4 3.6875 C-3.2575 2.99011719 -2.515 2.29273438 -1.75 1.57421875 C-1.1725 1.05472656 -0.595 0.53523437 0 0 Z " fill="#EBEBED" transform="translate(324,147)"/>
<path d="M0 0 C0.66 0 1.32 0 2 0 C3.37073786 1.63604196 4.70055256 3.30678061 6 5 C6.98230498 6.0173873 7.97469597 7.02596117 9 8 C8.34 8.66 7.68 9.32 7 10 C6.67 10.99 6.34 11.98 6 13 C4.99193149 11.40089132 3.99379615 9.79551738 3 8.1875 C2.443125 7.29417969 1.88625 6.40085938 1.3125 5.48046875 C0 3 0 3 0 0 Z " fill="#F3CA5F" transform="translate(211,192)"/>
<path d="M0 0 C-0.28875 0.53625 -0.5775 1.0725 -0.875 1.625 C-2.16711808 4.35280484 -3.08558592 7.12612718 -4 10 C-5.32 9.67 -6.64 9.34 -8 9 C-8.375 6.75 -8.375 6.75 -8 4 C-3.02702703 0 -3.02702703 0 0 0 Z " fill="#E4AE4C" transform="translate(176,199)"/>
<path d="M0 0 C2.625 0.375 2.625 0.375 5 1 C4.67 2.65 4.34 4.3 4 6 C2.35 6 0.7 6 -1 6 C-1.625 4.125 -1.625 4.125 -2 2 C-1.34 1.34 -0.68 0.68 0 0 Z " fill="#F5EFD2" transform="translate(183,241)"/>
<path d="M0 0 C1.66611905 -0.042721 3.33382885 -0.04063832 5 0 C6 1 6 1 6.0625 3.5625 C6.041875 4.366875 6.02125 5.17125 6 6 C4.02 6 2.04 6 0 6 C0 4.02 0 2.04 0 0 Z " fill="#F9F3D9" transform="translate(270,241)"/>
<path d="M0 0 C1.65 0.99 3.3 1.98 5 3 C4.67 3.99 4.34 4.98 4 6 C3.34 6 2.68 6 2 6 C1.67 6.99 1.34 7.98 1 9 C-0.37562854 7.71034824 -1.70766393 6.37310707 -3 5 C-3 4.34 -3 3.68 -3 3 C-2.34 3 -1.68 3 -1 3 C-0.67 2.01 -0.34 1.02 0 0 Z " fill="#F4EBCA" transform="translate(153,214)"/>
<path d="M0 0 C0.66 0 1.32 0 2 0 C2.66 0.99 3.32 1.98 4 3 C7.0745356 2.2236068 7.0745356 2.2236068 9 0 C9.6875 1.8125 9.6875 1.8125 10 4 C8.8125 5.8125 8.8125 5.8125 7 7 C5 7.0625 5 7.0625 3 6 C1.25 2.9375 1.25 2.9375 0 0 Z " fill="#EEEADD" transform="translate(176,212)"/>
<path d="M0 0 C0.763125 0.0825 1.52625 0.165 2.3125 0.25 C1.52875 1.1575 0.745 2.065 -0.0625 3 C-1.98802496 5.30190236 -3.50955741 7.46577207 -4.6875 10.25 C-6.01477273 4.94090909 -6.01477273 4.94090909 -4.5625 1.875 C-2.6875 0.25 -2.6875 0.25 0 0 Z " fill="#E8BD61" transform="translate(248.6875,197.75)"/>
<path d="M0 0 C1.38232443 1.62626404 2.71937515 3.2925002 4 5 C3.67 5.66 3.34 6.32 3 7 C2.236875 6.484375 1.47375 5.96875 0.6875 5.4375 C-0.199375 4.963125 -1.08625 4.48875 -2 4 C-2.99 4.33 -3.98 4.66 -5 5 C-5.73323796 7.01508358 -5.73323796 7.01508358 -6 9 C-6.66 9 -7.32 9 -8 9 C-6.68994234 5.06982701 -4.75047804 0 0 0 Z " fill="#CA7865" transform="translate(230,165)"/>
<path d="M0 0 C0.33 0.66 0.66 1.32 1 2 C1.99 2.33 2.98 2.66 4 3 C2.35 3.33 0.7 3.66 -1 4 C-1 4.66 -1 5.32 -1 6 C0.65 6 2.3 6 4 6 C4.66 7.98 5.32 9.96 6 12 C5.34 12 4.68 12 4 12 C3.67 10.68 3.34 9.36 3 8 C0.69 7.67 -1.62 7.34 -4 7 C-2.68 4.69 -1.36 2.38 0 0 Z " fill="#F0D582" transform="translate(302,205)"/>
<path d="M0 0 C3 1 3 1 4.1796875 2.765625 C5.09442005 5.25718223 5.20275975 7.10616836 5.125 9.75 C5.10695312 10.54921875 5.08890625 11.3484375 5.0703125 12.171875 C5.03550781 13.07679688 5.03550781 13.07679688 5 14 C4.34 14 3.68 14 3 14 C2.86722656 13.32453125 2.73445312 12.6490625 2.59765625 11.953125 C2.42105469 11.06109375 2.24445313 10.1690625 2.0625 9.25 C1.88847656 8.36828125 1.71445313 7.4865625 1.53515625 6.578125 C1.07631512 4.36764947 0.56663926 2.18487932 0 0 Z " fill="#F7ECD3" transform="translate(234,169)"/>
<path d="M0 0 C0.556875 0.70125 1.11375 1.4025 1.6875 2.125 C4.09124732 5.11344261 6.53810432 8.05940238 9 11 C4.72444237 10.52493804 2.93067678 7.93067678 0 5 C-2.17346568 4.13880866 -2.17346568 4.13880866 -4 4 C-2.68 3.67 -1.36 3.34 0 3 C0 2.01 0 1.02 0 0 Z " fill="#EBEBED" transform="translate(292,131)"/>
<path d="M0 0 C0.99 0.33 1.98 0.66 3 1 C-0.66666667 4.66666667 -4.33333333 8.33333333 -8 12 C-8 8 -8 8 -5.625 5.25 C-3 3 -3 3 -1 3 C-0.67 2.01 -0.34 1.02 0 0 Z " fill="#F3F3F5" transform="translate(313,280)"/>
<path d="M0 0 C1.98 0.66 3.96 1.32 6 2 C6 2.99 6 3.98 6 5 C5.278125 4.979375 4.55625 4.95875 3.8125 4.9375 C1.08074862 4.99820559 -1.34256091 5.39258535 -4 6 C-3.34 5.67 -2.68 5.34 -2 5 C-1.27840576 3.35636866 -0.60648579 1.68949614 0 0 Z " fill="#E8CC6A" transform="translate(276,265)"/>
<path d="M0 0 C2.0625 0.4375 2.0625 0.4375 4 1 C3.67 1.99 3.34 2.98 3 4 C3.66 4 4.32 4 5 4 C5.33 4.99 5.66 5.98 6 7 C5.071875 6.649375 4.14375 6.29875 3.1875 5.9375 C0.0197047 4.67617372 0.0197047 4.67617372 -3 6 C-1.125 1.125 -1.125 1.125 0 0 Z " fill="#E7CA65" transform="translate(229,264)"/>
<path d="M0 0 C2.64 0 5.28 0 8 0 C6.25 2.5 6.25 2.5 4 5 C2.68 5 1.36 5 0 5 C0 3.35 0 1.7 0 0 Z " fill="#EFBB50" transform="translate(155,258)"/>
<path d="M0 0 C1.65 0 3.3 0 5 0 C1.79239749 3.80635497 -1.40746109 7.54563567 -5 11 C-5.66 10.67 -6.32 10.34 -7 10 C-6.21625 9.278125 -5.4325 8.55625 -4.625 7.8125 C-2.15587562 5.16700959 -1.06739722 3.39626389 0 0 Z " fill="#EECB62" transform="translate(226,219)"/>
<path d="M0 0 C0.59554687 0.22042969 1.19109375 0.44085938 1.8046875 0.66796875 C0.55950785 1.79830173 -0.69167902 2.92201911 -1.9453125 4.04296875 C-2.64140625 4.66945312 -3.3375 5.2959375 -4.0546875 5.94140625 C-6.04039938 7.54302058 -7.87485343 8.63316943 -10.1953125 9.66796875 C-8.63343218 5.60707993 -4.82747362 -0.73013391 0 0 Z " fill="#F1F1F3" transform="translate(205.1953125,171.33203125)"/>
<path d="M0 0 C0 0.99 0 1.98 0 3 C-3.96 3 -7.92 3 -12 3 C-7.09396701 -0.67952474 -5.82490317 -0.29124516 0 0 Z " fill="#EFD06A" transform="translate(168,255)"/>
<path d="M0 0 C0.66 0 1.32 0 2 0 C0.63629701 2.99220268 -0.94908083 5.29026529 -3.125 7.75 C-3.93324219 8.67039063 -3.93324219 8.67039063 -4.7578125 9.609375 C-5.16773438 10.06828125 -5.57765625 10.5271875 -6 11 C-6.33 10.34 -6.66 9.68 -7 9 C-7.66 8.67 -8.32 8.34 -9 8 C-8.43410156 7.50628906 -7.86820312 7.01257813 -7.28515625 6.50390625 C-6.55167969 5.86324219 -5.81820313 5.22257813 -5.0625 4.5625 C-4.33160156 3.92441406 -3.60070312 3.28632813 -2.84765625 2.62890625 C-1.87860647 1.77458541 -0.91348825 0.91348825 0 0 Z " fill="#ECECED" transform="translate(323,244)"/>
<path d="M0 0 C-1.44253657 3.36591866 -3.33264727 5.51047079 -6 8 C-5.67 8.66 -5.34 9.32 -5 10 C-5.99 10.33 -6.98 10.66 -8 11 C-8 10.01 -8 9.02 -8 8 C-8.66 7.67 -9.32 7.34 -10 7 C-8.71372289 5.82739389 -7.42080217 4.6620717 -6.125 3.5 C-5.04605469 2.52546875 -5.04605469 2.52546875 -3.9453125 1.53125 C-2 0 -2 0 0 0 Z " fill="#ECEBEA" transform="translate(324,172)"/>
<path d="M0 0 C0.99 0.33 1.98 0.66 3 1 C-0.66666667 4.66666667 -4.33333333 8.33333333 -8 12 C-8 8.24111186 -7.049166 7.58681685 -4.5625 4.875 C-3.92441406 4.17117188 -3.28632813 3.46734375 -2.62890625 2.7421875 C-1.76410115 1.81724008 -0.89538137 0.89538137 0 0 Z " fill="#F3F3F5" transform="translate(240,280)"/>
<path d="M0 0 C0.33 0 0.66 0 1 0 C1.33 3.63 1.66 7.26 2 11 C0.02 11.99 0.02 11.99 -2 13 C-3.70921589 14.5412312 -3.70921589 14.5412312 -5 16 C-4.75 13.625 -4.75 13.625 -4 11 C-2.68 10.34 -1.36 9.68 0 9 C0 6.03 0 3.06 0 0 Z " fill="#F3EFDD" transform="translate(140,203)"/>
<path d="M0 0 C0.66 0.33 1.32 0.66 2 1 C1.34 4.96 0.68 8.92 0 13 C-1.65 13 -3.3 13 -5 13 C-5.33 11.68 -5.66 10.36 -6 9 C-5.01 9 -4.02 9 -3 9 C-3 9.99 -3 10.98 -3 12 C-2.34 12 -1.68 12 -1 12 C-0.67 8.04 -0.34 4.08 0 0 Z " fill="#F0D884" transform="translate(316,195)"/>
<path d="M0 0 C2.1640625 0.36328125 2.1640625 0.36328125 4 1 C2.73427767 2.15147661 1.46222094 3.29599314 0.1875 4.4375 C-0.52019531 5.07558594 -1.22789062 5.71367187 -1.95703125 6.37109375 C-4 8 -4 8 -7 9 C-5.4404735 5.17207132 -3.16368164 2.63640136 0 0 Z " fill="#EBEBED" transform="translate(263,304)"/>
<path d="M0 0 C0.99 0.33 1.98 0.66 3 1 C0.03 3.97 -2.94 6.94 -6 10 C-6.33 9.01 -6.66 8.02 -7 7 C-4.69 4.69 -2.38 2.38 0 0 Z " fill="#EBEBED" transform="translate(275,292)"/>
<path d="M0 0 C0.99 0.33 1.98 0.66 3 1 C1.75803878 2.15454162 0.50607155 3.29832562 -0.75 4.4375 C-1.79414063 5.39462891 -1.79414063 5.39462891 -2.859375 6.37109375 C-4.98792725 7.99081325 -6.39023405 8.58267256 -9 9 C-8.06725891 7.87105124 -7.12859878 6.74699124 -6.1875 5.625 C-5.66542969 4.99851563 -5.14335937 4.37203125 -4.60546875 3.7265625 C-3 2 -3 2 0 0 Z " fill="#EBCB64" transform="translate(167,231)"/>
<path d="M0 0 C-1.52708963 3.43595166 -3.59927045 6.11912454 -6 9 C-7.32 8.67 -8.64 8.34 -10 8 C-8.33333333 6.33333333 -6.66666667 4.66666667 -5 3 C-4.443125 2.401875 -3.88625 1.80375 -3.3125 1.1875 C-2 0 -2 0 0 0 Z " fill="#E5C964" transform="translate(249,247)"/>
<path d="M0 0 C0.99 0 1.98 0 3 0 C4.60546875 1.75 4.60546875 1.75 6.1875 4 C6.71730469 4.7425 7.24710938 5.485 7.79296875 6.25 C8.19128906 6.8275 8.58960938 7.405 9 8 C6.625 7.8125 6.625 7.8125 4 7 C2.6875 4.4375 2.6875 4.4375 2 2 C1.34 2 0.68 2 0 2 C0 1.34 0 0.68 0 0 Z " fill="#E7CA69" transform="translate(158,243)"/>
<path d="M0 0 C0.66 0.33 1.32 0.66 2 1 C1.33333333 2.33333333 0.66666667 3.66666667 0 5 C-0.33 5.721875 -0.66 6.44375 -1 7.1875 C-2 9 -2 9 -4 10 C-4 9.01 -4 8.02 -4 7 C-4.66 6.67 -5.32 6.34 -6 6 C-5.34 6 -4.68 6 -4 6 C-3.67 5.01 -3.34 4.02 -3 3 C-2.34 3 -1.68 3 -1 3 C-0.67 2.01 -0.34 1.02 0 0 Z " fill="#EBCA63" transform="translate(226,195)"/>
<path d="M0 0 C3 3 6 6 9 9 C8.34 9.66 7.68 10.32 7 11 C5.82141137 9.9296491 4.6574639 8.84316035 3.5 7.75 C2.8503125 7.14671875 2.200625 6.5434375 1.53125 5.921875 C0 4 0 4 0 0 Z " fill="#EBEAEA" transform="translate(219,132)"/>
<path d="M0 0 C0.33 0.99 0.66 1.98 1 3 C0.319375 3.61875 0.319375 3.61875 -0.375 4.25 C-2.05950374 6.06408095 -2.99265971 7.75285627 -4 10 C-4.99 8.35 -5.98 6.7 -7 5 C-6.030625 4.360625 -5.06125 3.72125 -4.0625 3.0625 C-1.23963731 1.3034741 -1.23963731 1.3034741 0 0 Z " fill="#E5C969" transform="translate(259,235)"/>
<path d="M0 0 C1.32 0 2.64 0 4 0 C4 1.65 4 3.3 4 5 C3.34 4.34 2.68 3.68 2 3 C0.02 5.97 0.02 5.97 -2 9 C-3 6 -3 6 -1.5625 2.8125 C-1.046875 1.884375 -0.53125 0.95625 0 0 Z " fill="#F5DD82" transform="translate(311,212)"/>
<path d="M0 0 C-1.55500981 3.81684226 -4.03595495 6.19195732 -7 9 C-7.33 7.35 -7.66 5.7 -8 4 C-2.25 0 -2.25 0 0 0 Z " fill="#F6DD8A" transform="translate(331,175)"/>
<path d="M0 0 C2.97 0 5.94 0 9 0 C7.515 1.98 7.515 1.98 6 4 C4.125 3.6875 4.125 3.6875 2 3 C1.34 2.01 0.68 1.02 0 0 Z " fill="#F8F8F9" transform="translate(286,272)"/>
<path d="M0 0 C2.97 0 5.94 0 9 0 C7.515 1.98 7.515 1.98 6 4 C4.125 3.6875 4.125 3.6875 2 3 C1.34 2.01 0.68 1.02 0 0 Z " fill="#F8F7F8" transform="translate(213,272)"/>
<path d="M0 0 C1.32 0.33 2.64 0.66 4 1 C3.67 1.66 3.34 2.32 3 3 C2.34 2.67 1.68 2.34 1 2 C-0.52299523 4.93720508 -1.80100302 7.9168649 -3 11 C-3.33 11 -3.66 11 -4 11 C-3.56179109 6.44262737 -3.14958831 3.42346555 0 0 Z " fill="#74B7A5" transform="translate(227,235)"/>
<path d="M0 0 C1.15224028 0.92961422 2.29659176 1.8690125 3.4375 2.8125 C4.07558594 3.33457031 4.71367187 3.85664063 5.37109375 4.39453125 C7 6 7 6 8 9 C3.7257442 7.4169423 1.73468206 4.49431596 -1 1 C-0.67 0.67 -0.34 0.34 0 0 Z " fill="#EBEBED" transform="translate(317,231)"/>
<path d="M0 0 C1.65 0 3.3 0 5 0 C3.70700306 2.88437779 2.34058637 4.87219421 0 7 C-0.99 6.67 -1.98 6.34 -3 6 C-2.34 5.34 -1.68 4.68 -1 4 C-0.3574765 1.93125966 -0.3574765 1.93125966 0 0 Z " fill="#E7C766" transform="translate(203,264)"/>
<path d="M0 0 C0.33 0 0.66 0 1 0 C1.309375 1.11375 1.61875 2.2275 1.9375 3.375 C2.82326483 6.7945155 2.82326483 6.7945155 4 9 C3.34 9.66 2.68 10.32 2 11 C1.67 10.34 1.34 9.68 1 9 C-0.65 9.33 -2.3 9.66 -4 10 C-3.525625 9.46375 -3.05125 8.9275 -2.5625 8.375 C-0.71813924 5.57157164 -0.37543153 3.30379742 0 0 Z " fill="#F2EAD8" transform="translate(198,204)"/>
<path d="M0 0 C0.66 0 1.32 0 2 0 C2.2475 0.7425 2.495 1.485 2.75 2.25 C4.09147301 5.20124062 5.60905526 6.84814974 8 9 C7.34 9.66 6.68 10.32 6 11 C3.66666667 8.66666667 1.33333333 6.33333333 -1 4 C-0.625 1.875 -0.625 1.875 0 0 Z " fill="#EFEADE" transform="translate(159,193)"/>
<path d="M0 0 C0.66 0.33 1.32 0.66 2 1 C0.515 3.475 0.515 3.475 -1 6 C-3.31 5.67 -5.62 5.34 -8 5 C-6.35197949 1.70395897 -3.32254422 1.22409524 0 0 Z " fill="#F0CC6D" transform="translate(314,184)"/>
<path d="M0 0 C1.32 0 2.64 0 4 0 C4 0.66 4 1.32 4 2 C4.66 2 5.32 2 6 2 C6 2.66 6 3.32 6 4 C3.69 4 1.38 4 -1 4 C-0.67 2.68 -0.34 1.36 0 0 Z " fill="#E3B048" transform="translate(173,259)"/>
<path d="M0 0 C2 2 2 2 2 5 C0.35 5 -1.3 5 -3 5 C-3 3.68 -3 2.36 -3 1 C-2.01 0.67 -1.02 0.34 0 0 Z " fill="#F3ECCC" transform="translate(167,250)"/>
<path d="M0 0 C0.99 0.99 1.98 1.98 3 3 C0.69 4.98 -1.62 6.96 -4 9 C-4 6 -4 6 -2.5625 4.5 C-2.046875 4.005 -1.53125 3.51 -1 3 C-0.67 2.01 -0.34 1.02 0 0 Z " fill="#E8C863" transform="translate(239,229)"/>
<path d="M0 0 C0.66 0 1.32 0 2 0 C2.33 1.98 2.66 3.96 3 6 C1.68 6.33 0.36 6.66 -1 7 C-0.67 4.69 -0.34 2.38 0 0 Z " fill="#FAF6D8" transform="translate(169,245)"/>
<path d="M0 0 C0.99 0.99 1.98 1.98 3 3 C4.32 2.34 5.64 1.68 7 1 C5.54744301 4.82946843 3.57104439 6.12050295 0 8 C0 5.36 0 2.72 0 0 Z " fill="#F1EEE8" transform="translate(317,196)"/>
<path d="M0 0 C1.32 0 2.64 0 4 0 C5.8125 2.375 5.8125 2.375 7 5 C6.67 5.66 6.34 6.32 6 7 C5.34 6.67 4.68 6.34 4 6 C3.67 6.66 3.34 7.32 3 8 C3 6.02 3 4.04 3 2 C2.01 1.67 1.02 1.34 0 1 C0 0.67 0 0.34 0 0 Z " fill="#EEE4CE" transform="translate(210,198)"/>
<path d="M0 0 C0.99 0.33 1.98 0.66 3 1 C1.02 3.31 -0.96 5.62 -3 8 C-3.66 7.34 -4.32 6.68 -5 6 C-3.35 4.02 -1.7 2.04 0 0 Z " fill="#F3F2F4" transform="translate(248,272)"/>
<path d="M0 0 C1.32 0 2.64 0 4 0 C4 1.65 4 3.3 4 5 C2.68 5 1.36 5 0 5 C0 3.35 0 1.7 0 0 Z " fill="#F6F4DE" transform="translate(204,243)"/>
<path d="M0 0 C0.99 0.33 1.98 0.66 3 1 C3 1.99 3 2.98 3 4 C3.99 4 4.98 4 6 4 C6 4.66 6 5.32 6 6 C3.61435923 5.42415568 1.33317216 4.77772405 -1 4 C-0.67 2.68 -0.34 1.36 0 0 Z " fill="#F7ECBD" transform="translate(293,221)"/>
<path d="M0 0 C0.99 0.33 1.98 0.66 3 1 C2.01 1.33 1.02 1.66 0 2 C0.34786708 3.97536745 0.34786708 3.97536745 1 6 C1.66 6.33 2.32 6.66 3 7 C0.03824877 6.38722388 -1.38058783 5.74627478 -4 4 C-2.68 2.68 -1.36 1.36 0 0 Z " fill="#EDCD6A" transform="translate(184,264)"/>
<path d="M0 0 C1.32 0.33 2.64 0.66 4 1 C2.125 4.875 2.125 4.875 1 6 C-0.66617115 6.04063832 -2.33388095 6.042721 -4 6 C-3.34 5.34 -2.68 4.68 -2 4 C-1.01 4 -0.02 4 1 4 C0.67 2.68 0.34 1.36 0 0 Z " fill="#F4DB84" transform="translate(176,251)"/>
<path d="M0 0 C3 1.8125 3 1.8125 6 4 C6 4.99 6 5.98 6 7 C3.00675737 5.9024777 2.15389099 5.32317108 0.75 2.375 C0.5025 1.59125 0.255 0.8075 0 0 Z " fill="#E2B64B" transform="translate(188,224)"/>
<path d="M0 0 C1.32 0.33 2.64 0.66 4 1 C3.67 2.32 3.34 3.64 3 5 C3.99 5.33 4.98 5.66 6 6 C4.35 6.33 2.7 6.66 1 7 C1.33 5.68 1.66 4.36 2 3 C1.34 3 0.68 3 0 3 C0 2.01 0 1.02 0 0 Z " fill="#F0CC5B" transform="translate(136,182)"/>
<path d="M0 0 C0.33 0.66 0.66 1.32 1 2 C-0.13304992 5.39914975 -1.12518475 6.05254451 -4 8 C-4 4 -4 4 -2 1.75 C-1.01 0.88375 -1.01 0.88375 0 0 Z " fill="#E9CE6E" transform="translate(238,159)"/>
<path d="M0 0 C0.33 0.66 0.66 1.32 1 2 C2.32 1.67 3.64 1.34 5 1 C5 3 5 5 5 7 C2 6 2 6 0 3 C0 2.01 0 1.02 0 0 Z " fill="#E8CB68" transform="translate(155,263)"/>
<path d="M0 0 C2.475 0.495 2.475 0.495 5 1 C4.67 2.65 4.34 4.3 4 6 C2.62437146 4.71034824 1.29233607 3.37310707 0 2 C0 1.34 0 0.68 0 0 Z " fill="#EFE7CC" transform="translate(152,237)"/>
<path d="M0 0 C0.66 0 1.32 0 2 0 C0.60667426 3.36720387 -0.9789286 4.9859524 -4 7 C-4.66 6.67 -5.32 6.34 -6 6 C-5.01 5.67 -4.02 5.34 -3 5 C-1.8499169 3.03327085 -1.8499169 3.03327085 -1 1 C-0.67 0.67 -0.34 0.34 0 0 Z " fill="#F3C658" transform="translate(178,223)"/>
<path d="M0 0 C0.66 0.33 1.32 0.66 2 1 C0.515 3.475 0.515 3.475 -1 6 C-1.99 5.67 -2.98 5.34 -4 5 C-3 2 -3 2 0 0 Z " fill="#F1CC6E" transform="translate(300,191)"/>
<path d="M0 0 C0.66 0.33 1.32 0.66 2 1 C2 1.66 2 2.32 2 3 C3.32 3.66 4.64 4.32 6 5 C2.30581799 5 0.22163822 3.71820705 -3 2 C-2.01 1.34 -1.02 0.68 0 0 Z " fill="#EFE3C6" transform="translate(151,186)"/>
<path d="M0 0 C1.32 0.33 2.64 0.66 4 1 C4 1.66 4 2.32 4 3 C3.360625 3.12375 2.72125 3.2475 2.0625 3.375 C1.381875 3.58125 0.70125 3.7875 0 4 C-0.33 4.66 -0.66 5.32 -1 6 C-1.66 6 -2.32 6 -3 6 C-2 4 -1 2 0 0 Z " fill="#EBC259" transform="translate(316,183)"/>
<path d="M0 0 C3.375 0.25 3.375 0.25 7 1 C8.4375 3.0625 8.4375 3.0625 9 5 C5.22454612 3.90931332 2.52956528 3.0916909 0 0 Z " fill="#F2E8C9" transform="translate(139,182)"/>
<path d="M0 0 C0.66 0 1.32 0 2 0 C1.75 2.375 1.75 2.375 1 5 C-1.0625 6.3125 -1.0625 6.3125 -3 7 C-3 6.01 -3 5.02 -3 4 C-2.34 3.67 -1.68 3.34 -1 3 C-0.67 2.01 -0.34 1.02 0 0 Z " fill="#C66545" transform="translate(225,170)"/>
<path d="M0 0 C0.99 0.33 1.98 0.66 3 1 C1.68 2.32 0.36 3.64 -1 5 C-1.99 4.67 -2.98 4.34 -4 4 C-2.68 2.68 -1.36 1.36 0 0 Z " fill="#E0AF48" transform="translate(163,258)"/>
<path d="M0 0 C1.65 1.32 3.3 2.64 5 4 C3.35 4.66 1.7 5.32 0 6 C0 4.02 0 2.04 0 0 Z " fill="#F6DC80" transform="translate(271,216)"/>
<path d="M0 0 C0.99 0.33 1.98 0.66 3 1 C2.67 1.33 2.34 1.66 2 2 C3.32 2.66 4.64 3.32 6 4 C4.35 4 2.7 4 1 4 C0.67 4.66 0.34 5.32 0 6 C-1.125 2.25 -1.125 2.25 0 0 Z " fill="#F4D271" transform="translate(187,211)"/>
<path d="M0 0 C2.33944736 0.28730055 4.6739143 0.61936779 7 1 C7 1.33 7 1.66 7 2 C5.2984375 2.433125 5.2984375 2.433125 3.5625 2.875 C2.386875 3.24625 1.21125 3.6175 0 4 C-0.33 4.66 -0.66 5.32 -1 6 C-1.66 6 -2.32 6 -3 6 C-1.125 1.125 -1.125 1.125 0 0 Z " fill="#F4E5C4" transform="translate(245,196)"/>
<path d="M0 0 C0 3.10551666 -0.5393715 4.35261084 -2 7 C-3.65 7 -5.3 7 -7 7 C-4.66666667 4.66666667 -2.33333333 2.33333333 0 0 Z " fill="#EAD58D" transform="translate(234,189)"/>
<path d="M0 0 C0.66 0 1.32 0 2 0 C3.6875 2.375 3.6875 2.375 5 5 C4.67 5.66 4.34 6.32 4 7 C2.35 5.35 0.7 3.7 -1 2 C-0.67 1.34 -0.34 0.68 0 0 Z " fill="#F6F2E9" transform="translate(208,192)"/>
<path d="M0 0 C2.5 1.8125 2.5 1.8125 5 4 C5 4.99 5 5.98 5 7 C4.34 7 3.68 7 3 7 C3 6.34 3 5.68 3 5 C2.34 5 1.68 5 1 5 C0.67 3.35 0.34 1.7 0 0 Z " fill="#E9C96C" transform="translate(220,158)"/>
</svg>
